<?xml version="1.0" encoding="UTF-8" standalone="no"?>
<!-- Created with Inkscape (http://www.inkscape.org/) -->

<svg
   xmlns:i="http://ns.adobe.com/AdobeIllustrator/10.0/"
   xmlns:dc="http://purl.org/dc/elements/1.1/"
   xmlns:cc="http://creativecommons.org/ns#"
   xmlns:rdf="http://www.w3.org/1999/02/22-rdf-syntax-ns#"
   xmlns:svg="http://www.w3.org/2000/svg"
   xmlns="http://www.w3.org/2000/svg"
   xmlns:sodipodi="http://sodipodi.sourceforge.net/DTD/sodipodi-0.dtd"
   xmlns:inkscape="http://www.inkscape.org/namespaces/inkscape"
   version="1.0"
   width="580"
   height="580"
   id="svg2"
   sodipodi:version="0.32"
   inkscape:version="0.48.0 r9654"
   sodipodi:docname="swimming_indoor.svg"
   inkscape:output_extension="org.inkscape.output.svg.inkscape"
   inkscape:export-filename="/home/babik/GIS/symbol/basen.png"
   inkscape:export-xdpi="2.5578823"
   inkscape:export-ydpi="2.5578823">
  <metadata
     id="metadata1976">
    <rdf:RDF>
      <cc:Work
         rdf:about="">
        <dc:format>image/svg+xml</dc:format>
        <dc:type
           rdf:resource="http://purl.org/dc/dcmitype/StillImage" />
        <cc:license
           rdf:resource="http://web.resource.org/cc/PublicDomain" />
        <dc:language>en</dc:language>
        <dc:title></dc:title>
      </cc:Work>
    </rdf:RDF>
  </metadata>
  <sodipodi:namedview
     inkscape:window-height="552"
     inkscape:window-width="1024"
     inkscape:pageshadow="2"
     inkscape:pageopacity="0.0"
     guidetolerance="10.0"
     gridtolerance="10.0"
     objecttolerance="10.0"
     borderopacity="1.0"
     bordercolor="#666666"
     pagecolor="#ffffff"
     id="base"
     inkscape:zoom="0.65172414"
     inkscape:cx="195.84687"
     inkscape:cy="292.54191"
     inkscape:window-x="0"
     inkscape:window-y="26"
     inkscape:current-layer="svg2"
     showgrid="false"
     inkscape:window-maximized="1" />
  <defs
     id="defs4">
    <inkscape:perspective
       sodipodi:type="inkscape:persp3d"
       inkscape:vp_x="0 : 290 : 1"
       inkscape:vp_y="0 : 1000 : 0"
       inkscape:vp_z="580 : 290 : 1"
       inkscape:persp3d-origin="290 : 193.33333 : 1"
       id="perspective3653" />
  </defs>
  <g
     id="g1327"
     style="fill:#abedff;fill-opacity:1;stroke:#000080"
     transform="matrix(0.97089209,0,0,0.7301358,0,72.374072)">
    <path
       d="M 66.275,1.768 C 24.94,1.768 1.704,23.139 1.704,66.804 l 0,450.123 c 0,40.844 20.896,62.229 62.192,62.229 l 452.024,0 c 41.307,0 62.229,-20.314 62.229,-62.229 l 0,-450.123 c 0,-42.601 -20.922,-65.036 -63.521,-65.036 -0.004,0 -448.495,-0.143 -448.353,0 z"
       style="fill:#abedff;fill-opacity:1;stroke:#000080;stroke-width:3.40799998999999998"
       id="path1329"
       inkscape:connector-curvature="0" />
  </g>
  <path
     clip-rule="evenodd"
     d="m 519.13563,317.18773 c -4.07272,1.2435 -9.33253,1.00505 -16.23195,-0.47046 -7.01222,-1.59602 -13.40398,-9.03642 -25.05428,-8.62492 -11.93361,0.41408 -28.78858,11.10419 -45.0744,11.10419 -16.51654,-0.35125 -35.06625,-11.57721 -51.91995,-11.57721 -16.79729,0.11921 -32.06779,11.75284 -48.18564,12.10794 -16.40119,0.0577 -32.74595,-10.86576 -48.8074,-11.10163 -16.28837,-0.41278 -31.72808,9.68764 -46.94217,9.56714 -14.9872,-0.29356 -28.27837,-11.04523 -43.15276,-10.57345 -15.2705,0.59353 -32.01138,12.40406 -46.94216,13.11299 -15.0436,0.23715 -28.67449,-10.98369 -41.96439,-11.10421 -13.402722,-0.23587 -28.447587,8.20957 -37.496818,10.10044 -9.049246,1.71524 -14.761576,1.89215 -16.910118,0.53201 l 0,31.30375 c 2.148542,1.35757 7.860872,1.18195 16.910118,-0.53201 9.049231,-1.89085 24.092825,-10.33631 37.496818,-10.10042 13.29118,0.11921 26.92079,11.34006 41.96439,11.10163 14.93078,-0.58843 31.67166,-12.69764 46.94216,-13.11172 14.87439,-0.5897 28.16428,10.39527 43.15276,10.63116 15.21409,0.1205 30.6538,-9.91967 46.94217,-9.62482 16.06145,0.23459 32.40621,11.15929 48.8074,11.10289 16.11785,-0.3551 31.38835,-11.99129 48.18564,-12.10923 16.8537,-0.0564 35.40341,11.34135 51.91995,11.63877 16.28582,0 33.14208,-10.69397 45.0744,-11.10547 11.6503,-0.5333 18.04206,7.0276 25.05428,8.56337 6.89942,1.47679 12.15923,1.71266 16.23195,0.47175 l 0,-31.30248 z"
     i:knockout="Off"
     id="path113"
     style="fill:#000080;fill-opacity:1;fill-rule:evenodd"
     inkscape:connector-curvature="0" />
  <path
     clip-rule="evenodd"
     d="m 251.11478,300.53531 129.39927,-69.04286 c -10.17733,-22.3263 -17.36134,-39.15694 -21.54688,-51.14694 -4.29964,-11.93105 -6.10845,-14.58851 -3.6766,-20.25854 2.48824,-5.84695 -0.96146,-6.73276 17.98564,-14.46929 18.94456,-8.03266 75.61411,-31.06659 94.10741,-32.18829 18.09847,-0.9448 17.36391,19.01761 14.36672,25.75166 -3.28177,6.55458 -20.13547,8.20828 -32.91644,13.40655 -12.95275,4.96111 -27.20409,10.51193 -43.66168,16.655 l 59.21294,130.28893 c -7.63396,6.55459 -17.75875,9.09667 -31.44477,8.09036 -13.91293,-1.35502 -32.46393,-14.58465 -49.76885,-14.64747 -17.24984,0.0628 -36.9315,14.82693 -52.70964,15.12049 -15.83584,-0.0603 -28.39118,-12.81556 -41.62596,-14.11288 -13.28862,-1.30375 -25.78756,0.88068 -37.72116,6.55328 z"
     i:knockout="Off"
     id="path115"
     style="fill:#000080;fill-opacity:1;fill-rule:evenodd"
     inkscape:connector-curvature="0" />
  <path
     clip-rule="evenodd"
     d="m 483.59892,187.79359 c 19.94957,0 36.13796,16.90626 36.13796,37.73911 0,20.83285 -16.18965,37.7391 -36.13796,37.7391 -19.94831,0 -36.13925,-16.90625 -36.13925,-37.7391 0,-20.83285 16.18965,-37.73911 36.13925,-37.73911"
     i:knockout="Off"
     id="path117"
     style="fill:#000080;fill-opacity:1;fill-rule:evenodd"
     inkscape:connector-curvature="0" />
  <path
     clip-rule="evenodd"
     d="m 163.7927,303.07354 c -15.3269,-2.83565 -30.93583,-7.20194 -47.90234,-13.11297 -17.080602,-6.25716 -46.206335,-14.64619 -53.107039,-22.85575 -6.899416,-8.44544 -1.866507,-25.33632 12.047692,-26.10421 13.96806,-0.76787 41.681097,11.63492 70.468387,21.91225 28.6168,10.16067 61.36275,22.85831 99.99152,38.74543 -4.75087,2.5985 -11.02857,3.42535 -19.05992,2.24339 -8.1442,-1.36014 -18.43689,-8.86078 -28.90012,-9.09538 -10.51962,-0.17819 -21.54817,2.65747 -33.53818,8.26724 z"
     i:knockout="Off"
     id="path119"
     style="fill:#000080;fill-opacity:1;fill-rule:evenodd"
     inkscape:connector-curvature="0" />
  <path
     clip-rule="evenodd"
     d="m 519.13563,369.57816 c -4.07272,1.12042 -9.33253,0.9448 -16.23195,-0.532 -7.01222,-1.53449 -13.40398,-9.09794 -25.05428,-8.56593 -11.93361,0.41278 -28.78858,11.10289 -45.0744,11.10289 -16.51654,-0.35254 -35.06625,-11.57465 -51.91995,-11.57465 -16.79729,0.11922 -32.06779,11.75414 -48.18564,12.10666 -16.40119,0.0602 -32.74595,-10.86574 -48.8074,-11.1029 -16.28837,-0.41408 -31.72808,9.68635 -46.94217,9.56842 -14.9872,-0.29485 -28.27837,-11.04522 -43.15276,-10.57218 -15.2705,0.58968 -32.01138,12.40151 -46.94216,13.113 -15.0436,0.23459 -28.67449,-10.98754 -41.96439,-11.10548 -13.402722,-0.2346 -28.447587,8.20956 -37.496818,10.10043 -9.049246,1.83317 -14.761576,1.77165 -16.910118,0.47304 l 0,31.30246 c 2.148542,1.2986 7.860872,1.36014 16.910118,-0.47303 9.049231,-1.89215 24.092825,-10.33502 37.496818,-10.10042 13.29118,0.11793 26.92079,11.34005 41.96439,11.10545 14.93078,-0.71147 31.67166,-12.52329 46.94216,-13.11298 14.87439,-0.47303 28.16428,10.27733 43.15276,10.57218 15.21409,0.11794 30.6538,-9.98249 46.94217,-9.56843 16.06145,0.23717 32.40621,11.16317 48.8074,11.10292 16.11785,-0.35255 31.38835,-11.99129 48.18564,-12.10667 16.8537,0 35.40341,11.22212 51.91995,11.57466 16.28582,0 33.14208,-10.69012 45.0744,-11.10292 11.6503,-0.41406 18.04206,7.02633 25.05428,8.62363 6.89942,1.47681 12.15923,1.71396 16.23195,0.47434 l 0,-31.30249 z"
     i:knockout="Off"
     id="path121"
     style="fill:#000080;fill-opacity:1;fill-rule:evenodd"
     inkscape:connector-curvature="0" />
  <path
     inkscape:connector-curvature="0"
     style="fill:#000080;fill-opacity:1;fill-rule:evenodd"
     id="path4402"
     i:knockout="Off"
     d="m 519.13564,424.81626 c -4.07272,1.12042 -9.33253,0.9448 -16.23195,-0.532 -7.01222,-1.53449 -13.40398,-9.09794 -25.05428,-8.56593 -11.93361,0.41278 -28.78858,11.10289 -45.0744,11.10289 -16.51654,-0.35254 -35.06625,-11.57465 -51.91995,-11.57465 -16.79729,0.11922 -32.06779,11.75414 -48.18564,12.10666 -16.40119,0.0602 -32.74595,-10.86574 -48.8074,-11.1029 -16.28837,-0.41408 -31.72808,9.68635 -46.94217,9.56842 -14.9872,-0.29485 -28.27837,-11.04522 -43.15276,-10.57218 -15.2705,0.58968 -32.01138,12.40151 -46.94216,13.113 -15.0436,0.23459 -28.67449,-10.98754 -41.96439,-11.10548 -13.402732,-0.2346 -28.447597,8.20956 -37.496828,10.10043 -9.049246,1.83317 -14.761576,1.77165 -16.910118,0.47304 l 0,31.30246 c 2.148542,1.2986 7.860872,1.36014 16.910118,-0.47303 9.049231,-1.89215 24.092825,-10.33502 37.496828,-10.10042 13.29118,0.11793 26.92079,11.34005 41.96439,11.10545 14.93078,-0.71147 31.67166,-12.52329 46.94216,-13.11298 14.87439,-0.47303 28.16428,10.27733 43.15276,10.57218 15.21409,0.11794 30.6538,-9.98249 46.94217,-9.56843 16.06145,0.23717 32.40621,11.16317 48.8074,11.10292 16.11785,-0.35255 31.38835,-11.99129 48.18564,-12.10667 16.8537,0 35.40341,11.22212 51.91995,11.57466 16.28582,0 33.14208,-10.69012 45.0744,-11.10292 11.6503,-0.41406 18.04206,7.02633 25.05428,8.62363 6.89942,1.47681 12.15923,1.71396 16.23195,0.47434 l 0,-31.30249 z"
     clip-rule="evenodd" />
</svg>
