<?xml version="1.0" encoding="UTF-8" standalone="no"?>
<!-- Generator: Adobe Illustrator 13.0.0, SVG Export Plug-In . SVG Version: 6.00 Build 14948)  -->

<svg
   xmlns:dc="http://purl.org/dc/elements/1.1/"
   xmlns:cc="http://creativecommons.org/ns#"
   xmlns:rdf="http://www.w3.org/1999/02/22-rdf-syntax-ns#"
   xmlns:svg="http://www.w3.org/2000/svg"
   xmlns="http://www.w3.org/2000/svg"
   xmlns:sodipodi="http://sodipodi.sourceforge.net/DTD/sodipodi-0.dtd"
   xmlns:inkscape="http://www.inkscape.org/namespaces/inkscape"
   version="1.1"
   id="Layer_1"
   x="0px"
   y="0px"
   width="85.052px"
   height="85.039px"
   viewBox="0 0 85.052 85.039"
   enable-background="new 0 0 85.052 85.039"
   xml:space="preserve"
   inkscape:version="0.48.0 r9654"
   sodipodi:docname="lesniczowka.svg"
   inkscape:export-filename="/home/babik/GIS/symbol/lesniczowka.png"
   inkscape:export-xdpi="22.253952"
   inkscape:export-ydpi="22.253952"><metadata
   id="metadata4405"><rdf:RDF><cc:Work
       rdf:about=""><dc:format>image/svg+xml</dc:format><dc:type
         rdf:resource="http://purl.org/dc/dcmitype/StillImage" /><dc:title></dc:title></cc:Work></rdf:RDF></metadata><defs
   id="defs4403">
	
</defs><sodipodi:namedview
   pagecolor="#ffffff"
   bordercolor="#666666"
   borderopacity="1"
   objecttolerance="10"
   gridtolerance="10"
   guidetolerance="10"
   inkscape:pageopacity="0"
   inkscape:pageshadow="2"
   inkscape:window-width="1024"
   inkscape:window-height="578"
   id="namedview4401"
   showgrid="false"
   inkscape:zoom="3.563071"
   inkscape:cx="42.526001"
   inkscape:cy="42.519501"
   inkscape:window-x="0"
   inkscape:window-y="0"
   inkscape:window-maximized="1"
   inkscape:current-layer="g4393" />
<g
   id="g4393">
		
		<path
   style="fill-rule:evenodd"
   inkscape:connector-curvature="0"
   id="path4397"
   d="m 20.139,13.323 c 0.124,1.541 -1.519,1.316 -1.701,2.551 -0.875,10.182 2.904,17.781 10.488,20.41 4.573,-6.949 19.577,-7.22 24.377,-0.284 8.485,-1.819 13.129,-13.948 9.071,-22.96 2.488,-1.099 3.24,1.557 3.401,3.685 2.378,2.094 3.748,-0.678 6.236,-0.851 0.024,2.969 -3.548,4.341 -5.953,3.118 -0.13,1.476 -0.259,2.953 -0.566,4.252 3.461,2.285 6.406,-0.682 9.354,-1.417 -0.416,4.143 -5.696,4.727 -9.638,3.685 -1.01,2.393 -1.892,4.912 -3.118,7.087 3.702,1.911 5.925,-1.814 9.354,-1.984 -0.835,4.019 -6.912,5.239 -10.771,3.685 -2.013,1.01 -3.622,2.425 -5.952,3.118 1.084,3.457 2.507,4.865 2.551,8.503 0.242,19.847 -32.031,21.092 -32.031,0.284 0,-3.376 1.15,-5.696 2.551,-8.221 -1.667,-1.545 -4.365,-2.061 -5.953,-3.685 -4.21,1.833 -9.857,0.06 -11.338,-3.402 2.895,-1.147 4.745,3.279 9.638,1.984 -0.834,-2.567 -2.444,-4.359 -2.834,-7.37 -4.133,1.414 -10.086,-0.044 -9.921,-3.685 2.411,0.195 5.243,3.63 9.071,1.701 0.381,-0.77 -0.5,-2.705 -0.284,-4.252 -2.061,0.843 -6.625,-0.72 -5.953,-3.401 2.019,-0.698 2.159,1.73 3.969,1.701 3.475,-0.057 1.835,-6.512 5.952,-4.252 z m 8.787,26.362 c -6.532,12.134 8.209,25.404 20.125,17.858 11.511,-7.288 5.138,-26.866 -10.488,-24.377 -4.667,0.743 -8.322,4.077 -9.637,6.519 z"
   clip-rule="evenodd" />
		<path
   style="fill:#000000;fill-opacity:1;fill-rule:evenodd"
   inkscape:connector-curvature="0"
   id="path4399"
   d="M 38.573999,32.892161 C 54.993004,30.325995 61.690907,50.518048 49.594961,58.035016 37.073433,65.818089 21.582298,52.131184 28.447282,39.615969 c 1.380772,-2.518721 5.221506,-5.957465 10.126717,-6.723808 z"
   clip-rule="evenodd" />
	</g>
</svg>