<?xml version="1.0" encoding="UTF-8" standalone="no"?>
<!-- Created with Inkscape (http://www.inkscape.org/) -->

<svg
   xmlns:dc="http://purl.org/dc/elements/1.1/"
   xmlns:cc="http://creativecommons.org/ns#"
   xmlns:rdf="http://www.w3.org/1999/02/22-rdf-syntax-ns#"
   xmlns:svg="http://www.w3.org/2000/svg"
   xmlns="http://www.w3.org/2000/svg"
   xmlns:sodipodi="http://sodipodi.sourceforge.net/DTD/sodipodi-0.dtd"
   xmlns:inkscape="http://www.inkscape.org/namespaces/inkscape"
   width="16px"
   height="16px"
   id="svg3054"
   version="1.1"
   inkscape:version="0.48.0 r9654"
   sodipodi:docname="piach.svg"
   inkscape:export-filename="/home/babik/GIS/symbol/piach.png"
   inkscape:export-xdpi="74"
   inkscape:export-ydpi="74">
  <defs
     id="defs3056" />
  <sodipodi:namedview
     id="base"
     pagecolor="#ffffff"
     bordercolor="#666666"
     borderopacity="1.0"
     inkscape:pageopacity="0.0"
     inkscape:pageshadow="2"
     inkscape:zoom="22.197802"
     inkscape:cx="8"
     inkscape:cy="8.1290086"
     inkscape:current-layer="layer1"
     showgrid="true"
     inkscape:grid-bbox="true"
     inkscape:document-units="px"
     inkscape:window-width="1024"
     inkscape:window-height="578"
     inkscape:window-x="0"
     inkscape:window-y="0"
     inkscape:window-maximized="1" />
  <metadata
     id="metadata3059">
    <rdf:RDF>
      <cc:Work
         rdf:about="">
        <dc:format>image/svg+xml</dc:format>
        <dc:type
           rdf:resource="http://purl.org/dc/dcmitype/StillImage" />
        <dc:title></dc:title>
      </cc:Work>
    </rdf:RDF>
  </metadata>
  <g
     id="layer1"
     inkscape:label="Layer 1"
     inkscape:groupmode="layer">
    <path
       sodipodi:type="arc"
       style="fill:#000000;fill-opacity:1;stroke:#803300;stroke-width:8;stroke-miterlimit:4;stroke-opacity:1;stroke-dasharray:none"
       id="path3090"
       sodipodi:cx="2.2750001"
       sodipodi:cy="3.1383662"
       sodipodi:rx="0.92351484"
       sodipodi:ry="0.69826734"
       d="m 3.1985149,3.1383662 a 0.92351484,0.69826734 0 1 1 -1.8470296,0 0.92351484,0.69826734 0 1 1 1.8470296,0 z"
       transform="matrix(0.16910579,0,0,0.24640677,1.4172646,0.99104182)"
       inkscape:transform-center-x="3.3336634"
       inkscape:transform-center-y="-3.1084159" />
    <path
       sodipodi:type="arc"
       style="fill:#000000;fill-opacity:1;stroke:#803300;stroke-width:8;stroke-miterlimit:4;stroke-opacity:1;stroke-dasharray:none"
       id="path3106"
       sodipodi:cx="2.2750001"
       sodipodi:cy="3.1383662"
       sodipodi:rx="0.92351484"
       sodipodi:ry="0.69826734"
       d="m 3.1985149,3.1383662 a 0.92351484,0.69826734 0 1 1 -1.8470296,0 0.92351484,0.69826734 0 1 1 1.8470296,0 z"
       transform="matrix(0.16910579,0,0,0.24640677,11.057861,6.7573777)"
       inkscape:transform-center-x="3.3336634"
       inkscape:transform-center-y="-3.1084159" />
    <path
       inkscape:transform-center-y="-3.1084159"
       inkscape:transform-center-x="3.3336634"
       transform="matrix(0.16910579,0,0,0.24640677,12.81479,1.2613386)"
       d="m 3.1985149,3.1383662 a 0.92351484,0.69826734 0 1 1 -1.8470296,0 0.92351484,0.69826734 0 1 1 1.8470296,0 z"
       sodipodi:ry="0.69826734"
       sodipodi:rx="0.92351484"
       sodipodi:cy="3.1383662"
       sodipodi:cx="2.2750001"
       id="path3112"
       style="fill:#000000;fill-opacity:1;stroke:#803300;stroke-width:8;stroke-miterlimit:4;stroke-opacity:1;stroke-dasharray:none"
       sodipodi:type="arc" />
    <path
       sodipodi:type="arc"
       style="fill:#000000;fill-opacity:1;stroke:#803300;stroke-width:8;stroke-miterlimit:4;stroke-opacity:1;stroke-dasharray:none"
       id="path3114"
       sodipodi:cx="2.2750001"
       sodipodi:cy="3.1383662"
       sodipodi:rx="0.92351484"
       sodipodi:ry="0.69826734"
       d="m 3.1985149,3.1383662 a 0.92351484,0.69826734 0 1 1 -1.8470296,0 0.92351484,0.69826734 0 1 1 1.8470296,0 z"
       transform="matrix(0.18132823,0,0,0.26257193,12.178815,11.459368)"
       inkscape:transform-center-x="3.5746104"
       inkscape:transform-center-y="-3.312339" />
    <path
       inkscape:transform-center-y="-3.1084159"
       inkscape:transform-center-x="3.3336634"
       transform="matrix(0.16910579,0,0,0.24640677,2.2732057,11.893023)"
       d="m 3.1985149,3.1383662 a 0.92351484,0.69826734 0 1 1 -1.8470296,0 0.92351484,0.69826734 0 1 1 1.8470296,0 z"
       sodipodi:ry="0.69826734"
       sodipodi:rx="0.92351484"
       sodipodi:cy="3.1383662"
       sodipodi:cx="2.2750001"
       id="path3118"
       style="fill:#000000;fill-opacity:1;stroke:#803300;stroke-width:8;stroke-miterlimit:4;stroke-opacity:1;stroke-dasharray:none"
       sodipodi:type="arc" />
    <path
       inkscape:transform-center-y="-3.1084159"
       inkscape:transform-center-x="3.3336634"
       transform="matrix(0.16910579,0,0,0.24640677,3.6697411,6.4420312)"
       d="m 3.1985149,3.1383662 a 0.92351484,0.69826734 0 1 1 -1.8470296,0 0.92351484,0.69826734 0 1 1 1.8470296,0 z"
       sodipodi:ry="0.69826734"
       sodipodi:rx="0.92351484"
       sodipodi:cy="3.1383662"
       sodipodi:cx="2.2750001"
       id="path3199"
       style="fill:#000000;fill-opacity:1;stroke:#803300;stroke-width:8;stroke-miterlimit:4;stroke-opacity:1;stroke-dasharray:none"
       sodipodi:type="arc" />
    <path
       inkscape:transform-center-y="-3.1084159"
       inkscape:transform-center-x="3.3336634"
       transform="matrix(0.16910579,0,0,0.24640677,6.9583555,2.4326251)"
       d="m 3.1985149,3.1383662 a 0.92351484,0.69826734 0 1 1 -1.8470296,0 0.92351484,0.69826734 0 1 1 1.8470296,0 z"
       sodipodi:ry="0.69826734"
       sodipodi:rx="0.92351484"
       sodipodi:cy="3.1383662"
       sodipodi:cx="2.2750001"
       id="path3201"
       style="fill:#000000;fill-opacity:1;stroke:#803300;stroke-width:8;stroke-miterlimit:4;stroke-opacity:1;stroke-dasharray:none"
       sodipodi:type="arc" />
    <path
       sodipodi:type="arc"
       style="fill:#000000;fill-opacity:1;stroke:#803300;stroke-width:8;stroke-miterlimit:4;stroke-opacity:1;stroke-dasharray:none"
       id="path3203"
       sodipodi:cx="2.2750001"
       sodipodi:cy="3.1383662"
       sodipodi:rx="0.92351484"
       sodipodi:ry="0.69826734"
       d="m 3.1985149,3.1383662 a 0.92351484,0.69826734 0 1 1 -1.8470296,0 0.92351484,0.69826734 0 1 1 1.8470296,0 z"
       transform="matrix(0.16910579,0,0,0.24640677,7.1385536,9.8657935)"
       inkscape:transform-center-x="3.3336634"
       inkscape:transform-center-y="-3.1084159" />
  </g>
</svg>
