<?xml version="1.0" encoding="UTF-8" standalone="no"?>
<svg
   xmlns:dc="http://purl.org/dc/elements/1.1/"
   xmlns:cc="http://creativecommons.org/ns#"
   xmlns:rdf="http://www.w3.org/1999/02/22-rdf-syntax-ns#"
   xmlns:svg="http://www.w3.org/2000/svg"
   xmlns="http://www.w3.org/2000/svg"
   xmlns:xlink="http://www.w3.org/1999/xlink"
   xmlns:sodipodi="http://sodipodi.sourceforge.net/DTD/sodipodi-0.dtd"
   xmlns:inkscape="http://www.inkscape.org/namespaces/inkscape"
   width="800"
   height="800"
   viewBox="-105 -105 210 210"
   id="svg2"
   version="1.1"
   inkscape:version="0.48.1 r9760"
   sodipodi:docname="Soccer_ball.svg">
  <metadata
     id="metadata62">
    <rdf:RDF>
      <cc:Work
         rdf:about="">
        <dc:format>image/svg+xml</dc:format>
        <dc:type
           rdf:resource="http://purl.org/dc/dcmitype/StillImage" />
        <dc:title></dc:title>
        <cc:license
           rdf:resource="http://creativecommons.org/licenses/publicdomain/" />
      </cc:Work>
      <cc:License
         rdf:about="http://creativecommons.org/licenses/publicdomain/">
        <cc:permits
           rdf:resource="http://creativecommons.org/ns#Reproduction" />
        <cc:permits
           rdf:resource="http://creativecommons.org/ns#Distribution" />
        <cc:permits
           rdf:resource="http://creativecommons.org/ns#DerivativeWorks" />
      </cc:License>
    </rdf:RDF>
  </metadata>
  <sodipodi:namedview
     pagecolor="#ffffff"
     bordercolor="#666666"
     borderopacity="1"
     objecttolerance="10"
     gridtolerance="10"
     guidetolerance="10"
     inkscape:pageopacity="0"
     inkscape:pageshadow="2"
     inkscape:window-width="1912"
     inkscape:window-height="1005"
     id="namedview60"
     showgrid="false"
     inkscape:zoom="0.59529552"
     inkscape:cx="-97.065799"
     inkscape:cy="345.59516"
     inkscape:window-x="0"
     inkscape:window-y="0"
     inkscape:window-maximized="1"
     inkscape:current-layer="svg2" />
  <defs
     id="defs4">
    <clipPath
       id="ball">
      <circle
         r="100"
         stroke-width="0"
         id="circle7" />
    </clipPath>
    <radialGradient
       id="shadow1"
       cx=".4"
       cy=".3"
       r=".8">
      <stop
         offset="0"
         stop-color="white"
         stop-opacity="1"
         id="stop10" />
      <stop
         offset=".4"
         stop-color="white"
         stop-opacity="1"
         id="stop12" />
      <stop
         offset=".8"
         stop-color="#EEEEEE"
         stop-opacity="1"
         id="stop14" />
    </radialGradient>
    <radialGradient
       id="shadow2"
       cx=".5"
       cy=".5"
       r=".5">
      <stop
         offset="0"
         stop-color="white"
         stop-opacity="0"
         id="stop17" />
      <stop
         offset=".8"
         stop-color="white"
         stop-opacity="0"
         id="stop19" />
      <stop
         offset=".99"
         stop-color="black"
         stop-opacity=".3"
         id="stop21" />
      <stop
         offset="1"
         stop-color="black"
         stop-opacity="1"
         id="stop23" />
    </radialGradient>
    <g
       id="black_stuff"
       stroke-linejoin="round"
       clip-path="url(#ball)">
      <g
         fill="black"
         id="g26">
        <path
           d="M 6,-32 Q 26,-28 46,-19 Q 57,-35 64,-47 Q 50,-68 37,-76 Q 17,-75 1,-68 Q 4,-51 6,-32"
           id="path28" />
        <path
           d="M -26,-2 Q -45,-8 -62,-11 Q -74,5 -76,22 Q -69,40 -50,54 Q -32,47 -17,39 Q -23,15 -26,-2"
           id="path30" />
        <path
           d="M -95,22 Q -102,12 -102,-8 V 80 H -85 Q -95,45 -95,22"
           id="path32" />
        <path
           d="M 55,24 Q 41,41 24,52 Q 28,65 31,79 Q 55,78 68,67 Q 78,50 80,35 Q 65,28 55,24"
           id="path34" />
        <path
           d="M 0,120 L -3,95 Q -25,93 -42,82 Q -50,84 -60,81"
           id="path36" />
        <path
           d="M -90,-48 Q -80,-52 -68,-49 Q -52,-71 -35,-77 Q -35,-100 -40,-100 H -100"
           id="path38" />
        <path
           d="M 100,-55 L 87,-37 Q 98,-10 97,5 L 100,6"
           id="path40" />
      </g>
      <g
         fill="none"
         id="g42">
        <path
           d="M 6,-32 Q -18,-12 -26,-2                      M 46,-19 Q 54,5 55,24                      M 64,-47 Q 77,-44 87,-37                      M 37,-76 Q 39,-90 36,-100                      M 1,-68 Q -13,-77 -35,-77                      M -62,-11 Q -67,-25 -68,-49                      M -76,22 Q -85,24 -95,22                      M -50,54 Q -49,70 -42,82                      M -17,39 Q 0,48 24,52                      M 31,79 Q 20,92 -3,95                      M 68,67 L 80,80                      M 80,35 Q 90,25 97,5             "
           id="path44" />
      </g>
    </g>
  </defs>
  <circle
     r="100"
     fill="white"
     stroke="none"
     id="circle46"
     inkscape:export-filename="/home/zibi/Desktop/soccer.png"
     inkscape:export-xdpi="300"
     inkscape:export-ydpi="300" />
  <circle
     r="100"
     fill="url(#shadow1)"
     stroke="none"
     id="circle48"
     inkscape:export-filename="/home/zibi/Desktop/soccer.png"
     inkscape:export-xdpi="300"
     inkscape:export-ydpi="300" />
  <use
     xlink:href="#black_stuff"
     stroke="#EEE"
     stroke-width="7"
     id="use50"
     inkscape:export-filename="/home/zibi/Desktop/soccer.png"
     inkscape:export-xdpi="300"
     inkscape:export-ydpi="300" />
  <use
     xlink:href="#black_stuff"
     stroke="#DDD"
     stroke-width="4"
     id="use52"
     inkscape:export-filename="/home/zibi/Desktop/soccer.png"
     inkscape:export-xdpi="300"
     inkscape:export-ydpi="300" />
  <use
     xlink:href="#black_stuff"
     stroke="#999"
     stroke-width="2"
     id="use54"
     inkscape:export-filename="/home/zibi/Desktop/soccer.png"
     inkscape:export-xdpi="300"
     inkscape:export-ydpi="300" />
  <use
     xlink:href="#black_stuff"
     stroke="black"
     stroke-width="1"
     id="use56"
     inkscape:export-filename="/home/zibi/Desktop/soccer.png"
     inkscape:export-xdpi="300"
     inkscape:export-ydpi="300" />
  <circle
     r="100"
     fill="url(#shadow2)"
     stroke="none"
     id="circle58"
     style="stroke:#000000;stroke-opacity:1;stroke-width:3.9375;stroke-miterlimit:4;stroke-dasharray:none"
     inkscape:export-filename="/home/zibi/Desktop/soccer.png"
     inkscape:export-xdpi="300"
     inkscape:export-ydpi="300" />
</svg>
