<?xml version="1.0" encoding="UTF-8" standalone="no"?>
<!-- Created with Inkscape (http://www.inkscape.org/) -->

<svg
   xmlns:dc="http://purl.org/dc/elements/1.1/"
   xmlns:cc="http://creativecommons.org/ns#"
   xmlns:rdf="http://www.w3.org/1999/02/22-rdf-syntax-ns#"
   xmlns:svg="http://www.w3.org/2000/svg"
   xmlns="http://www.w3.org/2000/svg"
   xmlns:sodipodi="http://sodipodi.sourceforge.net/DTD/sodipodi-0.dtd"
   xmlns:inkscape="http://www.inkscape.org/namespaces/inkscape"
   width="200"
   height="200"
   id="svg2"
   version="1.1"
   inkscape:version="0.48.0 r9654"
   sodipodi:docname="piwo1 (1).svg">
  <defs
     id="defs4">
    <inkscape:perspective
       sodipodi:type="inkscape:persp3d"
       inkscape:vp_x="0 : 526.18109 : 1"
       inkscape:vp_y="0 : 1000 : 0"
       inkscape:vp_z="744.09448 : 526.18109 : 1"
       inkscape:persp3d-origin="372.04724 : 350.78739 : 1"
       id="perspective10" />
    <inkscape:perspective
       id="perspective3604"
       inkscape:persp3d-origin="0.5 : 0.33333333 : 1"
       inkscape:vp_z="1 : 0.5 : 1"
       inkscape:vp_y="0 : 1000 : 0"
       inkscape:vp_x="0 : 0.5 : 1"
       sodipodi:type="inkscape:persp3d" />
  </defs>
  <sodipodi:namedview
     id="base"
     pagecolor="#ffffff"
     bordercolor="#666666"
     borderopacity="1.0"
     inkscape:pageopacity="0.0"
     inkscape:pageshadow="2"
     inkscape:zoom="1.979899"
     inkscape:cx="143.66479"
     inkscape:cy="129.5856"
     inkscape:document-units="px"
     inkscape:current-layer="layer1"
     showgrid="false"
     inkscape:window-width="1024"
     inkscape:window-height="552"
     inkscape:window-x="0"
     inkscape:window-y="26"
     inkscape:window-maximized="1" />
  <metadata
     id="metadata7">
    <rdf:RDF>
      <cc:Work
         rdf:about="">
        <dc:format>image/svg+xml</dc:format>
        <dc:type
           rdf:resource="http://purl.org/dc/dcmitype/StillImage" />
        <dc:title></dc:title>
      </cc:Work>
    </rdf:RDF>
  </metadata>
  <g
     inkscape:label="Layer 1"
     inkscape:groupmode="layer"
     id="layer1"
     transform="translate(0,-852.36218)">
    <rect
       style="fill:#e6901f;fill-opacity:0.866426;stroke:#070000;stroke-width:5;stroke-linecap:round;stroke-linejoin:bevel;stroke-miterlimit:4;stroke-opacity:1;stroke-dasharray:none;stroke-dashoffset:0"
       id="rect2816"
       width="54.548237"
       height="91.923882"
       x="72.22081"
       y="914.47638" />
    <path
       inkscape:connector-curvature="0"
       style="fill:none;stroke:#000000;stroke-width:5;stroke-linecap:butt;stroke-linejoin:miter;stroke-miterlimit:4;stroke-opacity:1;stroke-dasharray:none"
       d="m 126.77415,929.62865 c 20.83194,5.41854 30.92826,20.26789 32.66791,35.3107 1.30412,11.27674 -14.7583,26.65935 -33.17299,30.85429"
       id="path3590"
       sodipodi:nodetypes="csc" />
    <path
       inkscape:connector-curvature="0"
       style="fill:none;stroke:#000000;stroke-width:1px;stroke-linecap:butt;stroke-linejoin:miter;stroke-opacity:1"
       d="m 88.388348,933.16418 0,53.53808"
       id="path3592" />
    <path
       inkscape:connector-curvature="0"
       style="fill:none;stroke:#000000;stroke-width:1px;stroke-linecap:butt;stroke-linejoin:miter;stroke-opacity:1"
       d="m 99.747463,928.11342 0.505077,63.63961"
       id="path3594" />
    <path
       inkscape:connector-curvature="0"
       style="fill:none;stroke:#000000;stroke-width:1px;stroke-linecap:butt;stroke-linejoin:miter;stroke-opacity:1"
       d="m 111.62186,933.16418 0,53.53808"
       id="path3592-3" />
    <path
       inkscape:connector-curvature="0"
       style="fill:#fff5f5;fill-opacity:1;stroke:#070000;stroke-width:3.8621614;stroke-linecap:round;stroke-linejoin:round;stroke-miterlimit:4;stroke-opacity:1;stroke-dasharray:none;stroke-dashoffset:0"
       id="path2884"
       d="m 76.926474,915.80575 c -0.745822,0 -1.491644,0 -2.237467,0 -0.84057,0.0241 -1.664476,0.008 -2.487796,-0.16768 -0.5446,-0.13713 -1.095805,-0.2303 -1.639438,-0.37281 -0.758392,-0.19566 -1.477138,-0.49965 -2.149277,-0.88583 -0.603678,-0.29455 -1.068492,-0.71484 -1.519975,-1.18894 0.009,0.0147 0.04195,0.0532 0.0268,0.0443 -0.477499,-0.2821 -0.835488,-0.86774 -1.18716,-1.27716 -0.5493,-0.62106 -1.064179,-1.26794 -1.575127,-1.91826 -0.46119,-0.6674 -0.498331,-0.71985 -0.814229,-1.10407 -0.432124,-0.67079 -0.508858,-1.05759 -0.706488,-1.54984 -0.181137,-0.39974 -0.281292,-0.82385 -0.341994,-1.25403 -0.13147,-0.82671 0.147962,-1.31757 0.575208,-1.98698 0.02622,-0.0411 -0.06482,0.0737 -0.09724,0.11044 0.741679,-1.06574 0.187245,-0.23507 0.702965,-0.99869 0.07679,-0.0852 0.150641,-0.17281 0.230362,-0.25543 0.159197,-0.165 0.344586,-0.35416 0.532911,-0.49144 0.398332,-0.29036 0.678103,-0.43284 0.391277,-0.28212 0.378832,-0.23606 0.629033,-0.51723 1.123579,-0.89419 -0.024,0.0139 -0.09153,0.0611 -0.07202,0.0417 0.417899,-0.414 0.874211,-0.69736 1.397787,-0.97208 -2.446221,0.96343 -1.038499,2.17899 -0.650299,3.27315 0.0307,0.0866 -0.147085,-0.11655 -0.223329,-0.17148 -0.308065,-0.22196 -0.455112,-0.30694 -0.794267,-0.5219 -1.306151,-0.8383 -2.555242,-1.75346 -3.802622,-2.66958 -0.702845,-0.48485 -1.333269,-1.04931 -1.853047,-1.71268 -0.467117,-0.5364 -0.758319,-1.15713 -0.943425,-1.82759 0.02983,0.0953 0.08704,0.18644 0.0895,0.28591 0.0015,0.0617 -0.06064,-0.10896 -0.08652,-0.16544 -0.199957,-0.43641 -0.332806,-0.87145 -0.429114,-1.33844 -0.187031,-0.89955 0.02102,-1.79679 0.269959,-2.66323 0.277829,-1.05154 0.858088,-1.9844 1.377156,-2.93683 0.638798,-1.23951 1.413616,-2.40648 2.189215,-3.56992 0.79594,-1.33248 1.839549,-2.49158 2.956761,-3.58238 0.80074,-0.764 1.609688,-1.5166 2.513243,-2.16816 0.708154,-0.5627 1.526797,-0.9618 2.361713,-1.31859 0.738872,-0.32344 1.754039,-0.43084 2.42166,-0.52487 -0.482449,0.0623 -0.777048,0.63521 -0.962198,1.04002 -0.09136,0.41376 -0.06348,0.33632 -0.07015,-0.0109 -0.0057,-0.32778 -0.0081,-0.65561 -0.0092,-0.98344 -0.08311,-1.02766 0.432218,-1.8796 1.004201,-2.70009 0.566528,-0.82265 1.161698,-1.62504 1.715414,-2.4561 0.603552,-0.97329 1.473679,-1.72964 2.339348,-2.48133 0.69909,-0.5486 1.371767,-1.12088 2.086875,-1.65115 1.109186,-0.74639 2.378266,-1.0977 3.697751,-1.31058 1.310558,-0.2316 2.596696,0.0333 3.864576,0.33688 0.707314,0.13975 1.374942,0.40917 2.06116,0.61839 0.691827,0.25079 1.314809,0.61191 1.856355,1.09435 -0.05337,-0.0468 -0.217098,-0.18291 -0.160087,-0.14028 0.445804,0.33331 0.66348,0.56486 0.616999,0.53832 -0.661142,-0.37753 -0.591641,-0.55288 -1.315114,-0.61047 1.16375,-1.4886 -1.878152,0.91618 -1.448956,0.61995 0.254043,-0.17535 0.465646,-0.40805 0.736458,-0.5586 0.608922,-0.33848 1.349814,-0.37986 2.029429,-0.44544 0.975192,0.007 1.912468,-0.15413 2.853597,-0.37493 1.216994,-0.3636 2.456049,-0.65612 3.705015,-0.89889 1.207091,-0.21228 2.40439,-0.45495 3.622921,-0.60213 0.85778,-0.0981 1.7218,-0.12076 2.58473,-0.13115 0.98407,-0.0803 1.88779,0.14203 2.78497,0.51804 1.54855,0.82198 2.76486,2.04502 3.87743,3.34112 0.78752,1.08603 1.59141,2.17221 2.31007,3.30293 0.11981,0.0976 0.35661,0.89345 0.40427,0.76801 0.10372,0.16588 0.20356,0.33407 0.31118,0.49765 0.0684,0.10404 -0.11294,-0.22323 -0.19358,-0.31889 -0.10889,-0.12915 -0.23722,-0.24322 -0.37009,-0.34977 -0.0716,-0.0575 -0.16069,-0.0914 -0.23969,-0.13919 -0.0127,-0.008 -0.0496,-0.0232 -0.0352,-0.0271 0.0402,-0.0107 0.0834,0.002 0.1251,0.003 0.73195,0.0656 1.45452,0.0535 2.18075,-0.0412 1.25669,-0.22893 2.53074,-0.14132 3.78704,0.0302 1.24581,0.21961 2.47991,0.51146 3.69212,0.86377 1.03445,0.24082 1.94833,0.6526 2.85075,1.19111 1.35266,1.00253 2.55629,2.17738 3.53745,3.51879 0.58666,0.80981 0.85649,1.72243 0.93073,2.69335 0.0638,0.5948 -0.0518,1.16822 -0.22676,1.73587 -0.0454,0.14714 0.0785,-0.29861 0.0948,-0.45125 -0.0621,-0.79699 0.006,-0.48949 -1.09204,-1.70298 -0.0892,-0.0985 -0.26096,-0.0818 -0.37836,-0.14794 -0.0286,-0.0162 0.066,-0.009 0.0991,-0.009 0.34761,-9.8e-4 0.69516,0.0101 1.04275,0.0125 1.56628,-0.0929 2.80894,0.12961 4.23894,0.74685 1.80207,0.96264 3.38783,2.25061 4.93006,3.55221 1.72042,1.45269 3.30207,3.0307 4.53658,4.88658 0.83445,1.24086 1.11753,2.58939 0.98994,4.04267 -0.18366,1.20609 -0.7415,2.27018 -1.45441,3.26166 -0.62101,0.85721 -1.41067,1.50793 -2.40112,1.93569 -0.83792,0.28511 -0.004,0.0197 0.0134,-0.0426 0.89624,-3.16266 -0.0295,-3.83469 0.91627,-2.62878 0.6307,0.69078 1.18929,1.43659 1.75294,2.17756 0.67773,0.93518 1.2918,1.90969 1.82539,2.92675 0.41309,0.80922 0.57756,1.68495 0.63811,2.57514 0.0106,0.88142 -0.11574,1.85984 -0.56886,2.64687 -0.16051,0.27878 -0.36869,0.52978 -0.55303,0.79468 -0.86488,0.98996 -1.95806,1.66717 -3.17719,2.1822 -1.28547,0.44918 -2.65829,0.63181 -4.00561,0.83847 -0.86257,0.25343 -1.97065,0.0551 -2.81602,0.27715 -0.60918,0.16287 -1.2331,0.25982 -1.86139,0.32038 -0.0494,0.0601 -1.28837,0.32032 -0.85458,0.24209 -0.67364,0.29377 -1.39526,0.43331 -2.12545,0.51642 -0.51517,0.0489 -1.03306,0.0565 -1.55031,0.058 0.4874,-0.052 -1.20654,0.0586 -0.72413,-0.002 0.66211,-0.0831 0.16524,0.0313 0.54299,-0.0635 -0.45543,0.19791 -0.94108,0.3098 -1.43194,0.39013 -0.31965,0.0751 -1.59591,0.0763 -0.0585,-0.0708 0.0695,-0.007 -0.12914,0.0513 -0.19371,0.0769 -0.35757,0.10499 -2.12811,0.68577 -0.52194,0.0796 -0.24517,0.13096 -0.70967,0.54724 0.20468,-0.22987 -1.90594,2.34273 -5.36355,-0.24004 -3.4576,-2.58277 l 0,0 c 0.28081,-0.25732 0.46017,-0.47048 0.76412,-0.64572 0.47365,-0.20792 0.86765,-0.39147 1.33842,-0.50444 0.37297,-0.14655 0.94444,-0.29797 1.20109,-0.26617 0.20606,-0.0313 0.21898,-0.0194 0.42105,-0.10503 0.6178,-0.22071 1.24602,-0.3178 1.90309,-0.27723 0.35434,-8.3e-4 0.70902,-0.004 1.06245,-0.0306 0.31245,-0.0322 0.62148,-0.0703 0.907,-0.20759 0.69949,-0.249 1.4232,-0.43582 2.15902,-0.55957 0.53391,-0.0426 1.051,-0.1719 1.57248,-0.28479 0.9396,-0.12595 1.89101,-0.13229 2.82911,-0.27916 0.9811,-0.14911 1.97142,-0.29476 2.93131,-0.53563 0.54425,-0.22847 1.04682,-0.4671 1.46518,-0.89602 0.0165,0.34811 0.28756,-0.61242 0.22238,-0.6255 -0.0182,-0.3249 -0.0404,-0.6506 -0.1829,-0.95196 -0.42101,-0.81145 -0.91497,-1.58343 -1.44754,-2.33206 -0.5551,-0.72976 -1.10956,-1.45914 -1.72624,-2.14286 -0.81916,-1.05973 -0.61991,-3.39563 0.88375,-3.70885 -0.12041,0.20191 0.51614,-0.39424 0.51782,-0.48116 0.29865,-0.38917 0.54018,-0.79251 0.67778,-1.25929 0.0847,-0.57904 0.007,-0.86243 -0.34238,-1.39814 -0.97595,-1.53486 -2.34893,-2.76499 -3.72504,-3.9695 -1.22288,-1.04031 -2.48519,-2.05265 -3.87177,-2.88903 -0.82102,-0.38707 -1.49849,-0.41767 -2.4313,-0.35674 -1.73033,-0.0148 -3.77176,0.10139 -4.01684,-2.26125 0.0371,-0.87451 0.18359,-0.75138 0.14,-1.10665 -0.009,-0.23089 0.004,-0.38249 -0.17467,-0.59186 -0.62125,-0.91876 -1.48712,-1.65582 -2.33097,-2.38224 -0.50811,-0.37824 -1.10228,-0.50472 -1.71226,-0.67915 -1.01094,-0.29464 -2.03891,-0.53899 -3.07646,-0.73013 -0.85024,-0.13794 -1.70705,-0.18182 -2.55712,-0.0185 -1.08268,0.13309 -2.16637,0.15592 -3.25401,0.0495 -1.27087,-0.16445 -1.99562,-0.4494 -2.73381,-1.51686 -0.0689,-0.0996 0.14007,0.19788 0.21011,0.29682 -0.31118,-0.38483 -0.59856,-0.85604 -0.74202,-1.23554 -0.5756,-0.97138 -1.31882,-1.85828 -1.94285,-2.80035 -0.67963,-0.80902 -1.41452,-1.56513 -2.29718,-2.17265 -0.0683,-0.0332 -0.14446,-0.0547 -0.20488,-0.0998 -0.0221,-0.0165 0.0998,-0.0384 0.072,-0.0408 -0.25803,-0.0219 -0.52159,0.015 -0.78009,4.9e-4 -0.69909,0.008 -1.39927,0.0223 -2.09453,0.0989 -1.11096,0.13199 -2.200362,0.36284 -3.301503,0.55191 -1.191819,0.22805 -2.368312,0.52122 -3.530494,0.86164 -1.145995,0.26763 -2.299813,0.47113 -3.484263,0.47653 -0.405952,0.0318 -0.490753,0.0399 -0.483647,0.0317 0.05827,-0.0669 0.165785,-0.0759 0.236584,-0.13065 0.158256,-0.1224 0.587015,-0.53903 0.446596,-0.39814 -0.722598,0.725 -0.517147,0.47365 -1.767611,0.89683 -0.403746,-0.0101 -0.757384,0.0119 -1.146047,-0.165 -3.170586,-1.4432 0.528091,0.10686 -1.186489,-0.78687 0.44803,0.14062 -0.357975,-0.13024 -0.155545,-0.1258 -0.598688,-0.18318 -1.180264,-0.4196 -1.79551,-0.54597 -0.687532,-0.1658 -1.381365,-0.38523 -2.096067,-0.26511 -0.597156,0.0873 -1.189745,0.19624 -1.717295,0.48635 -0.625497,0.46374 -1.213895,0.96321 -1.826266,1.44194 -0.578081,0.50176 -1.187567,0.97497 -1.587819,1.6289 -0.574255,0.86172 -1.191368,1.69347 -1.777661,2.54689 -0.165428,0.23049 -0.263583,0.49015 -0.252162,0.20534 0.02103,-0.52462 -0.01822,0.0365 -8.63e-4,0.12958 0.001,0.30666 0.0032,0.61329 0.0085,0.91991 0.008,0.41786 0.0241,0.83884 -0.09883,1.24565 -0.434134,1.081 -1.113166,1.57995 -2.210907,1.88314 -0.567849,0.11109 -1.146808,0.14215 -1.704666,0.29242 -0.533671,0.21558 -1.046124,0.46812 -1.489656,0.83117 -0.730335,0.52238 -1.367789,1.14566 -2.019902,1.75501 -0.908077,0.87979 -1.753485,1.81133 -2.386721,2.89756 -0.707756,1.05973 -1.416981,2.12134 -1.997052,3.25212 -0.388264,0.71203 -0.847928,1.39863 -1.059154,2.18389 -0.199534,0.5024 -0.143579,0.49928 -0.166771,0.68711 0.06247,0.35577 0.219236,0.63646 0.374331,0.99105 -0.143279,-0.10632 0.110017,0.20519 0.231993,0.36538 0.226032,0.35596 0.648805,0.57951 0.977181,0.85238 1.170097,0.86039 2.340876,1.72059 3.566366,2.50759 0.302715,0.19448 1.274967,0.74768 1.483615,1.0364 0.876224,1.21251 1.92027,2.60447 -0.486287,3.72631 0.778067,-0.47619 -0.382995,0.25518 -0.375546,0.38445 -0.366832,0.2704 -0.683393,0.59993 -1.063033,0.8477 -0.126837,0.0912 -0.246741,0.1921 -0.38051,0.27376 -0.06924,0.0422 0.121922,-0.10548 0.185794,-0.1549 0.03701,-0.0287 -0.07006,0.0616 -0.105112,0.0925 -0.05305,0.0476 -0.08916,0.15639 -0.160181,0.14168 -0.02042,-0.004 0.02301,-0.0334 0.03452,-0.0501 0.392087,-0.69912 -0.237542,0.43578 -0.356537,0.48415 -0.03971,0.0675 -0.07567,0.13725 -0.119122,0.20265 -0.07389,0.11124 -0.207134,0.45639 -0.232614,0.32681 -0.08093,-0.41155 1.05628,-0.59783 0.374357,-1.20504 0.01154,0.10555 -0.03916,-0.004 0.08582,0.28394 0.09372,0.2335 0.616446,1.44265 0.155507,0.58094 -0.02197,-0.02 -0.0854,-0.0823 -0.0659,-0.0601 0.312301,0.35637 0.572157,0.73594 0.8436,1.11691 0.471628,0.60186 0.945005,1.20167 1.456105,1.7733 0.408239,0.47547 0.816408,0.93505 1.27276,1.36945 -0.621907,-0.5536 0.08566,0.0723 0.276869,0.11886 0.217087,0.12474 0.568836,0.32256 1.052329,0.43688 0.499549,0.13114 1.009872,0.21013 1.51312,0.34158 0.396036,0.13027 0.985563,0.009 1.456493,0.0498 0.745823,0 1.491645,0 2.237467,0 3.100022,0 3.100022,4.20089 0,4.20089 z" />
  </g>
</svg>
