<?xml version="1.0" encoding="UTF-8" standalone="no"?>
<svg
   xmlns:dc="http://purl.org/dc/elements/1.1/"
   xmlns:cc="http://creativecommons.org/ns#"
   xmlns:rdf="http://www.w3.org/1999/02/22-rdf-syntax-ns#"
   xmlns:svg="http://www.w3.org/2000/svg"
   xmlns="http://www.w3.org/2000/svg"
   xmlns:sodipodi="http://sodipodi.sourceforge.net/DTD/sodipodi-0.dtd"
   xmlns:inkscape="http://www.inkscape.org/namespaces/inkscape"
   width="717pt"
   height="610pt"
   viewBox="0 0 717 610"
   version="1.1"
   id="svg5411"
   inkscape:version="0.48.1 r9760"
   sodipodi:docname="Aiga_mail.svg">
  <metadata
     id="metadata5445">
    <rdf:RDF>
      <cc:Work
         rdf:about="">
        <dc:format>image/svg+xml</dc:format>
        <dc:type
           rdf:resource="http://purl.org/dc/dcmitype/StillImage" />
        <dc:title></dc:title>
      </cc:Work>
    </rdf:RDF>
  </metadata>
  <sodipodi:namedview
     pagecolor="#ffffff"
     bordercolor="#666666"
     borderopacity="1"
     objecttolerance="10"
     gridtolerance="10"
     guidetolerance="10"
     inkscape:pageopacity="0"
     inkscape:pageshadow="2"
     inkscape:window-width="1912"
     inkscape:window-height="1005"
     id="namedview5443"
     showgrid="false"
     inkscape:zoom="0.34457895"
     inkscape:cx="434.61986"
     inkscape:cy="176.5739"
     inkscape:window-x="0"
     inkscape:window-y="0"
     inkscape:window-maximized="1"
     inkscape:current-layer="svg5411" />
  <defs
     id="defs5413">
    <clipPath
       id="clip0">
      <rect
         width="717"
         height="610"
         id="rect5416" />
    </clipPath>
  </defs>
  <path
     inkscape:connector-curvature="0"
     id="path5419"
     d="m 67.890365,1.013289 716.999995,0 0,610.000001 -716.999995,0 0,-610.000001 z m 0,0"
     style="fill:none;stroke:#ffffff;stroke-width:0.1;stroke-linecap:butt;stroke-linejoin:miter;stroke-miterlimit:10" />
  <g
     id="g5459"
     inkscape:export-filename="/home/zibi/Desktop/poczta.png"
     inkscape:export-xdpi="300"
     inkscape:export-ydpi="300">
    <path
       style="fill:none;stroke:#000000;stroke-width:0.1;stroke-linecap:butt;stroke-linejoin:miter;stroke-miterlimit:10"
       d="m 205.64083,140.26544 c 146.50008,-0.002 292.99997,-0.003 439.50017,4.7e-4 6.9e-4,110.49839 -10e-6,220.99659 3.5e-4,331.49509 -146.50181,10e-4 -293.00334,0.004 -439.50502,-0.002 0.008,-110.49811 -9.5e-4,-220.99592 0.005,-331.49391 z m 0,0"
       id="path5423"
       inkscape:connector-curvature="0" />
    <path
       style="fill:#000000;fill-rule:nonzero;stroke:none"
       d="m 205.64083,140.26544 c 146.50008,-0.002 292.99997,-0.003 439.50017,4.7e-4 6.9e-4,110.49839 -10e-6,220.99659 3.5e-4,331.49509 -146.50181,10e-4 -293.00334,0.004 -439.50502,-0.002 0.008,-110.49811 -9.5e-4,-220.99592 0.005,-331.49391 z m 0,0"
       id="path5425"
       inkscape:connector-curvature="0" />
    <path
       style="fill:none;stroke:#ffffff;stroke-width:0.1;stroke-linecap:butt;stroke-linejoin:miter;stroke-miterlimit:10"
       d="m 257.77204,171.01756 c 112.49338,-0.007 224.98662,-0.007 337.48015,1.9e-4 -12.60391,12.53709 -24.91817,25.3544 -37.57931,37.83514 -15.42659,15.24516 -30.46437,30.86679 -45.87755,46.12465 -8.7675,8.88945 -17.80156,17.52028 -26.35065,26.62057 -15.3233,15.36496 -30.76308,30.62458 -45.97749,46.09073 -7.73489,6.82082 -21.03169,6.56401 -28.02168,-1.22105 -51.29363,-51.75128 -102.39004,-103.69 -153.67347,-155.45023 z m 0,0"
       id="path5427"
       inkscape:connector-curvature="0" />
    <path
       style="fill:#ffffff;fill-rule:nonzero;stroke:none"
       d="m 257.77204,171.01756 c 112.49338,-0.007 224.98662,-0.007 337.48015,1.9e-4 -12.60391,12.53709 -24.91817,25.3544 -37.57931,37.83514 -15.42659,15.24516 -30.46437,30.86679 -45.87755,46.12465 -8.7675,8.88945 -17.80156,17.52028 -26.35065,26.62057 -15.3233,15.36496 -30.76308,30.62458 -45.97749,46.09073 -7.73489,6.82082 -21.03169,6.56401 -28.02168,-1.22105 -51.29363,-51.75128 -102.39004,-103.69 -153.67347,-155.45023 z m 0,0"
       id="path5429"
       inkscape:connector-curvature="0" />
    <path
       style="fill:none;stroke:#ffffff;stroke-width:0.1;stroke-linecap:butt;stroke-linejoin:miter;stroke-miterlimit:10"
       d="m 236.36643,418.89511 c 0.036,-75.17778 0.0377,-150.35571 -8.5e-4,-225.53331 37.03094,37.22166 73.83554,74.66469 110.75014,111.99922 -36.75829,37.99341 -73.94722,75.58187 -110.74929,113.53409 z m 0,0"
       id="path5431"
       inkscape:connector-curvature="0" />
    <path
       style="fill:#ffffff;fill-rule:nonzero;stroke:none"
       d="m 236.36643,418.89511 c 0.036,-75.17778 0.0377,-150.35571 -8.5e-4,-225.53331 37.03094,37.22166 73.83554,74.66469 110.75014,111.99922 -36.75829,37.99341 -73.94722,75.58187 -110.74929,113.53409 z m 0,0"
       id="path5433"
       inkscape:connector-curvature="0" />
    <path
       style="fill:none;stroke:#ffffff;stroke-width:0.1;stroke-linecap:butt;stroke-linejoin:miter;stroke-miterlimit:10"
       d="m 541.60563,268.67758 c 24.40114,-24.20433 48.39749,-48.80205 72.78679,-73.01756 -9.9e-4,74.32641 10e-4,148.65268 -9.9e-4,222.97928 -36.77175,-37.39458 -73.28904,-75.0383 -110.00537,-112.48578 12.41625,-12.48293 24.96802,-24.83348 37.21984,-37.47594 z m 0,0"
       id="path5435"
       inkscape:connector-curvature="0" />
    <path
       style="fill:#ffffff;fill-rule:nonzero;stroke:none"
       d="m 541.60563,268.67758 c 24.40114,-24.20433 48.39749,-48.80205 72.78679,-73.01756 -9.9e-4,74.32641 10e-4,148.65268 -9.9e-4,222.97928 -36.77175,-37.39458 -73.28904,-75.0383 -110.00537,-112.48578 12.41625,-12.48293 24.96802,-24.83348 37.21984,-37.47594 z m 0,0"
       id="path5437"
       inkscape:connector-curvature="0" />
    <path
       style="fill:none;stroke:#ffffff;stroke-width:0.1;stroke-linecap:butt;stroke-linejoin:miter;stroke-miterlimit:10"
       d="m 257.77145,441.00886 c 37.10914,-37.80317 74.05217,-75.76702 111.12259,-113.60575 7.86537,7.66345 15.24807,15.80551 23.21848,23.36378 18.71103,17.00185 50.48529,16.74977 68.72667,-0.82851 7.26268,-7.26663 14.52324,-14.53558 21.79408,-21.79437 36.92084,37.49693 73.55578,75.27007 110.37784,112.86385 -111.74669,0.01 -223.4931,0.008 -335.23965,0.001 z m 0,0"
       id="path5439"
       inkscape:connector-curvature="0" />
    <path
       style="fill:#ffffff;fill-rule:nonzero;stroke:none"
       d="m 257.77145,441.00886 c 37.10914,-37.80317 74.05217,-75.76702 111.12259,-113.60575 7.86537,7.66345 15.24807,15.80551 23.21848,23.36378 18.71103,17.00185 50.48529,16.74977 68.72667,-0.82851 7.26268,-7.26663 14.52324,-14.53558 21.79408,-21.79437 36.92084,37.49693 73.55578,75.27007 110.37784,112.86385 -111.74669,0.01 -223.4931,0.008 -335.23965,0.001 z m 0,0"
       id="path5441"
       inkscape:connector-curvature="0" />
  </g>
</svg>
