<?xml version="1.0" encoding="UTF-8" standalone="no"?>
<!-- Created with Sodipodi ("http://www.sodipodi.com/") -->

<svg
   xmlns:dc="http://purl.org/dc/elements/1.1/"
   xmlns:cc="http://creativecommons.org/ns#"
   xmlns:rdf="http://www.w3.org/1999/02/22-rdf-syntax-ns#"
   xmlns:svg="http://www.w3.org/2000/svg"
   xmlns="http://www.w3.org/2000/svg"
   xmlns:sodipodi="http://sodipodi.sourceforge.net/DTD/sodipodi-0.dtd"
   xmlns:inkscape="http://www.inkscape.org/namespaces/inkscape"
   version="1.0"
   x="0"
   y="0"
   width="109.13385"
   height="109.13385"
   id="svg602"
   xml:space="preserve"
   sodipodi:version="0.32"
   inkscape:version="0.48.0 r9654"
   sodipodi:docname="restauracja.svg"
   inkscape:export-filename="/home/babik/GIS/symbol/restauracja.png"
   inkscape:export-xdpi="11.580503"
   inkscape:export-ydpi="11.580503"><metadata
     id="metadata9"><rdf:RDF><cc:Work
         rdf:about=""><dc:format>image/svg+xml</dc:format><dc:type
           rdf:resource="http://purl.org/dc/dcmitype/StillImage" /><dc:title></dc:title></cc:Work></rdf:RDF></metadata><defs
     id="defs7" /><sodipodi:namedview
     inkscape:window-height="578"
     inkscape:window-width="1024"
     inkscape:pageshadow="2"
     inkscape:pageopacity="0.0"
     borderopacity="1.0"
     bordercolor="#666666"
     pagecolor="#ffffff"
     id="base"
     inkscape:zoom="2.6111425"
     inkscape:cx="83.338664"
     inkscape:cy="58.230952"
     inkscape:window-x="0"
     inkscape:window-y="0"
     inkscape:current-layer="svg602"
     showgrid="false"
     showguides="true"
     inkscape:guide-bbox="true"
     inkscape:window-maximized="1"><sodipodi:guide
       orientation="0,1"
       position="1.0832144,14.894198"
       id="guide3844" /><sodipodi:guide
       orientation="0,1"
       position="111.57108,14.894198"
       id="guide5039" /></sodipodi:namedview><rect
     style="fill:none;stroke:#ffffff;stroke-width:0;stroke-miterlimit:4;stroke-opacity:1;stroke-dasharray:none"
     id="rect5041"
     width="88.55278"
     height="86.386345"
     x="9.9093828"
     y="17.478209"
     ry="10.019733" /><path
     inkscape:connector-curvature="0"
     sodipodi:nodetypes="cccssszsssccc"
     id="path761"
     style="font-size:12px;fill:#734a08;fill-opacity:1;fill-rule:evenodd;stroke:#ffffff;stroke-width:0;stroke-miterlimit:4;stroke-opacity:1;stroke-dasharray:none"
     d="m 100.56861,12.539433 c -4.531322,6.658442 -15.688657,18.68028 -11.903777,22.099626 3.666776,3.113528 14.615047,-8.69894 21.922567,-13.048412 0,0 -13.259992,20.277043 -20.158818,27.185951 -6.898841,6.908919 -24.089318,6.31216 -31.301744,13.535121 C 51.914413,69.534679 48.714693,74.915027 38.052845,85.592446 27.391,96.269866 13.410263,107.02734 9.9093826,103.86456 6.4085016,100.70178 17.249027,86.601752 27.910873,75.924333 38.572718,65.246914 43.231466,61.690309 50.443892,54.467351 57.656317,47.24439 56.145021,30.945547 63.043862,24.036629 69.942695,17.12772 90.549789,3.4882296 90.549789,3.4882296 86.359224,10.653627 74.520396,21.661544 77.978109,24.984435 81.762991,28.403779 92.181849,16.909452 100.56859,12.53942"
     inkscape:export-filename="/home/babik/GIS/symbol/restaurace.png"
     inkscape:export-xdpi="18.693708"
     inkscape:export-ydpi="18.693708" /><path
     inkscape:connector-curvature="0"
     sodipodi:nodetypes="cccccccc"
     id="path762"
     style="font-size:12px;fill:#734a08;fill-opacity:1;fill-rule:evenodd;stroke:#ffffff;stroke-width:0;stroke-miterlimit:4;stroke-opacity:1;stroke-dasharray:none"
     d="M 87.077354,103.81885 C 91.905951,100.67827 74.958719,82.309269 64.233384,71.043393 57.099658,63.41174 50.614365,55.336227 42.787308,48.179167 30.839902,35.115117 18.892515,22.05107 6.9451236,8.9870168 1.6461899,13.272879 -6.8189337,16.419687 9.6539786,39.314906 19.384617,49.248733 26.947204,55.234543 35.532858,57.590975 40.990816,65.217037 48.717231,72.544767 55.215191,79.458936 69.132685,95.050617 83.577854,107.2023 87.077354,103.81885 z"
     inkscape:export-filename="/home/babik/GIS/symbol/restaurace.png"
     inkscape:export-xdpi="18.693708"
     inkscape:export-ydpi="18.693708" /></svg>