<?xml version="1.0" encoding="UTF-8" standalone="no"?>
<!-- Created with Inkscape (http://www.inkscape.org/) -->

<svg
   xmlns:dc="http://purl.org/dc/elements/1.1/"
   xmlns:cc="http://creativecommons.org/ns#"
   xmlns:rdf="http://www.w3.org/1999/02/22-rdf-syntax-ns#"
   xmlns:svg="http://www.w3.org/2000/svg"
   xmlns="http://www.w3.org/2000/svg"
   xmlns:sodipodi="http://sodipodi.sourceforge.net/DTD/sodipodi-0.dtd"
   xmlns:inkscape="http://www.inkscape.org/namespaces/inkscape"
   version="1.0"
   width="580"
   height="580"
   id="svg2"
   sodipodi:version="0.32"
   inkscape:version="0.48.0 r9654"
   sodipodi:docname="synagoga.svg"
   inkscape:output_extension="org.inkscape.output.svg.inkscape"
   inkscape:export-filename="/home/mechanik/OSMapa-Topo/symbol/synagoga10.png"
   inkscape:export-xdpi="1.5493709"
   inkscape:export-ydpi="1.5493709">
  <metadata
     id="metadata2975">
    <rdf:RDF>
      <cc:Work
         rdf:about="">
        <dc:format>image/svg+xml</dc:format>
        <dc:type
           rdf:resource="http://purl.org/dc/dcmitype/StillImage" />
        <cc:license
           rdf:resource="http://web.resource.org/cc/PublicDomain" />
        <dc:language>en</dc:language>
        <dc:title></dc:title>
      </cc:Work>
    </rdf:RDF>
  </metadata>
  <sodipodi:namedview
     inkscape:window-height="744"
     inkscape:window-width="1366"
     inkscape:pageshadow="2"
     inkscape:pageopacity="0.0"
     guidetolerance="10.0"
     gridtolerance="10.0"
     objecttolerance="10.0"
     borderopacity="1.0"
     bordercolor="#666666"
     pagecolor="#ffffff"
     id="base"
     inkscape:zoom="0.65172415"
     inkscape:cx="314.14947"
     inkscape:cy="249.54617"
     inkscape:window-x="0"
     inkscape:window-y="0"
     inkscape:current-layer="svg2"
     showgrid="false"
     inkscape:window-maximized="1" />
  <defs
     id="defs4">
    <inkscape:perspective
       sodipodi:type="inkscape:persp3d"
       inkscape:vp_x="0 : 290 : 1"
       inkscape:vp_y="0 : 1000 : 0"
       inkscape:vp_z="580 : 290 : 1"
       inkscape:persp3d-origin="290 : 193.33333 : 1"
       id="perspective2441" />
    <inkscape:perspective
       id="perspective2466"
       inkscape:persp3d-origin="372.04724 : 350.78739 : 1"
       inkscape:vp_z="744.09448 : 526.18109 : 1"
       inkscape:vp_y="0 : 1000 : 0"
       inkscape:vp_x="0 : 526.18109 : 1"
       sodipodi:type="inkscape:persp3d" />
    <inkscape:perspective
       id="perspective3333"
       inkscape:persp3d-origin="372.04724 : 350.78739 : 1"
       inkscape:vp_z="744.09448 : 526.18109 : 1"
       inkscape:vp_y="0 : 1000 : 0"
       inkscape:vp_x="0 : 526.18109 : 1"
       sodipodi:type="inkscape:persp3d" />
    <inkscape:perspective
       id="perspective3401"
       inkscape:persp3d-origin="372.04724 : 350.78739 : 1"
       inkscape:vp_z="744.09448 : 526.18109 : 1"
       inkscape:vp_y="0 : 1000 : 0"
       inkscape:vp_x="0 : 526.18109 : 1"
       sodipodi:type="inkscape:persp3d" />
    <inkscape:perspective
       id="perspective3464"
       inkscape:persp3d-origin="372.04724 : 350.78739 : 1"
       inkscape:vp_z="744.09448 : 526.18109 : 1"
       inkscape:vp_y="0 : 1000 : 0"
       inkscape:vp_x="0 : 526.18109 : 1"
       sodipodi:type="inkscape:persp3d" />
    <inkscape:perspective
       id="perspective3581"
       inkscape:persp3d-origin="225 : 150 : 1"
       inkscape:vp_z="450 : 225 : 1"
       inkscape:vp_y="0 : 1000 : 0"
       inkscape:vp_x="0 : 225 : 1"
       sodipodi:type="inkscape:persp3d" />
  </defs>
  <g
     id="g1327"
     style="fill:none">
    <path
       d="M 66.275,1.768 C 24.94,1.768 1.704,23.139 1.704,66.804 L 1.704,516.927 C 1.704,557.771 22.599,579.156 63.896,579.156 L 515.92,579.156 C 557.227,579.156 578.149,558.841 578.149,516.927 L 578.149,66.804 C 578.149,24.203 557.227,1.768 514.628,1.768 C 514.624,1.768 66.133,1.625 66.275,1.768 z "
       style="fill:none;stroke:#eee;stroke-width:3.40799998999999998"
       id="path1329" />
  </g>
  <path
     sodipodi:nodetypes="cccssssscccscccscccscccsccssssccscccccccccccccssccccsccccccccccsccccccsccsssc"
     id="path3648"
     d="m 246.60439,504.9895 -43.254,-69.07321 -85.10098,-0.0358 C 65.214191,435.85814 32.06413,434.22991 30.270819,431.55926 28.688138,429.20228 46.209956,397.16369 69.208236,360.36232 97.726099,314.72862 110.0536,291.105 107.97418,286.07398 106.29719,282.01672 87.630028,251.18433 66.491526,217.55762 45.353064,183.93086 28.057939,154.22998 28.057939,151.55568 c 0,-3.52089 24.181109,-4.86399 87.646231,-4.86811 l 87.64622,-0.006 43.13387,-69.139236 c 23.72363,-38.026581 44.58506,-69.1392399 46.35875,-69.1392399 4.86448,0 17.01044,17.3376329 56.51327,80.6690449 l 35.9408,57.620751 87.73388,0 c 67.25793,0 87.68737,1.22252 87.53472,5.23825 -0.10962,2.88102 -19.2329,35.35222 -42.49635,72.15823 l -42.29717,66.91996 42.4963,67.76076 c 23.373,37.2684 42.49636,69.85628 42.49636,72.41748 0,3.25412 -26.42553,4.65674 -87.73386,4.65674 l -87.73388,0 -35.9408,57.62073 c -39.30894,63.02061 -51.66501,80.68782 -56.39314,80.63326 -1.70764,-0.0198 -22.56907,-31.11886 -46.35875,-69.10911 z m 63.40854,-41.36848 c 7.6963,-12.38093 13.99331,-23.69553 13.99331,-25.1436 0,-1.44807 -13.31767,-2.6328 -29.59483,-2.6328 -16.27718,0 -29.59482,1.18473 -29.59482,2.6328 0,3.4078 27.47846,47.65437 29.59482,47.65437 0.88449,0 7.9052,-10.12984 15.60152,-22.51077 z M 159.13664,364.65413 c -8.23673,-13.80165 -16.00034,-25.09388 -17.25245,-25.09388 -1.25208,0 -9.01566,11.29223 -17.2524,25.09388 l -14.97589,25.09385 32.22829,0 32.22832,0 -14.97587,-25.09385 z m 214.2023,-3.19269 c 9.82468,-15.55761 23.64834,-37.88609 30.71927,-49.61884 l 12.85616,-21.33229 -29.49484,-47.8126 -29.49478,-47.81261 -63.31066,0 -63.31061,0 -28.77394,45.60511 c -15.8257,25.08279 -28.77398,47.59199 -28.77398,50.02037 0,4.34224 47.2065,83.76516 55.87017,93.99916 3.15313,3.72462 21.97651,5.23824 65.14232,5.23824 l 60.70788,0 17.86301,-28.28654 z m 90.85204,3.19269 c -8.23673,-13.80165 -16.00032,-25.09388 -17.25241,-25.09388 -1.25211,0 -9.01571,11.29223 -17.25246,25.09388 l -14.97582,25.09385 32.22828,0 32.2283,0 -14.97589,-25.09385 z M 158.83677,217.86366 173.5128,192.7898 l -31.92844,0 -31.92846,0 14.97589,25.09389 c 8.23674,13.80163 16.00032,25.08484 17.2524,25.07382 1.25211,-0.0109 8.88074,-11.30324 16.95258,-25.09385 z m 305.05432,0 14.67605,-25.07386 -31.92843,0 -31.92842,0 14.97582,25.09389 c 8.23675,13.80163 16.00035,25.08484 17.25246,25.07382 1.25209,-0.0109 8.88069,-11.30324 16.95252,-25.09385 z m -139.88485,-73.8033 c 0,-3.40779 -27.47848,-47.654361 -29.59483,-47.654361 -2.11636,0 -29.59482,44.246571 -29.59482,47.654361 0,1.44807 13.31764,2.63284 29.59482,2.63284 16.27716,0 29.59483,-1.18477 29.59483,-2.63284 z"
     style="fill:#000000;fill-opacity:1;stroke:#000000;stroke-width:1.74695562999999998"
     inkscape:connector-curvature="0" />
</svg>
