<?xml version="1.0" encoding="UTF-8" standalone="no"?>
<!-- Generator: Adobe Illustrator 13.0.2, SVG Export Plug-In . SVG Version: 6.00 Build 14948)  -->

<svg
   xmlns:dc="http://purl.org/dc/elements/1.1/"
   xmlns:cc="http://creativecommons.org/ns#"
   xmlns:rdf="http://www.w3.org/1999/02/22-rdf-syntax-ns#"
   xmlns:svg="http://www.w3.org/2000/svg"
   xmlns="http://www.w3.org/2000/svg"
   xmlns:xlink="http://www.w3.org/1999/xlink"
   xmlns:sodipodi="http://sodipodi.sourceforge.net/DTD/sodipodi-0.dtd"
   xmlns:inkscape="http://www.inkscape.org/namespaces/inkscape"
   version="1.1"
   id="Layer_1"
   x="0px"
   y="0px"
   width="496.06299"
   height="708.66144"
   viewBox="0 0 496.06299 708.66145"
   enable-background="new 0 0 106.527 286.222"
   xml:space="preserve"
   inkscape:version="0.48.1 r9760"
   sodipodi:docname="tennis.svg"><metadata
   id="metadata123"><rdf:RDF><cc:Work
       rdf:about=""><dc:format>image/svg+xml</dc:format><dc:type
         rdf:resource="http://purl.org/dc/dcmitype/StillImage" /><dc:title></dc:title></cc:Work></rdf:RDF></metadata><defs
   id="defs121"><linearGradient
   id="linearGradient10101"><stop
     id="stop10103"
     offset="0.00000000"
     style="stop-color:#4d400c;stop-opacity:1.0000000;" /><stop
     id="stop10105"
     offset="1.0000000"
     style="stop-color:#86692d;stop-opacity:1.0000000" /></linearGradient><linearGradient
   gradientUnits="userSpaceOnUse"
   id="linearGradient11591"
   inkscape:collect="always"
   spreadMethod="reflect"
   x1="374.20142"
   x2="378.57401"
   xlink:href="#linearGradient10101"
   y1="267.59784"
   y2="264.83621" /><linearGradient
   id="linearGradient8627"><stop
     id="stop8629"
     offset="0"
     style="stop-color:#000000;stop-opacity:1;" /><stop
     id="stop8631"
     offset="1.0000000"
     style="stop-color:#e85600;stop-opacity:1.0000000;" /></linearGradient><linearGradient
   gradientUnits="userSpaceOnUse"
   id="linearGradient11589"
   inkscape:collect="always"
   x1="494.05084"
   x2="444.90613"
   xlink:href="#linearGradient8627"
   y1="163.0381"
   y2="168.24548" /><linearGradient
   id="linearGradient7887"><stop
     id="stop7889"
     offset="0"
     style="stop-color:#000000;stop-opacity:1;" /><stop
     id="stop7891"
     offset="1.0000000"
     style="stop-color:#2c2c2c;stop-opacity:1.0000000;" /></linearGradient><linearGradient
   gradientUnits="userSpaceOnUse"
   id="linearGradient11587"
   inkscape:collect="always"
   x1="318.59756"
   x2="288.71396"
   xlink:href="#linearGradient7887"
   y1="103.31743"
   y2="233.45561" /><linearGradient
   id="linearGradient9363"><stop
     id="stop9365"
     offset="0.00000000"
     style="stop-color:#797979;stop-opacity:1.0000000;" /><stop
     id="stop9367"
     offset="1.0000000"
     style="stop-color:#2a2a2a;stop-opacity:1.0000000;" /></linearGradient><radialGradient
   cx="495.40192"
   cy="134.40182"
   fx="495.40192"
   fy="134.40182"
   gradientTransform="matrix(-1.21323,-0.380133,0.0620145,-0.197881,1111.65,361.191)"
   gradientUnits="userSpaceOnUse"
   id="radialGradient11585"
   inkscape:collect="always"
   r="45.169621"
   xlink:href="#linearGradient9363" /><linearGradient
   id="linearGradient6411"><stop
     id="stop6413"
     offset="0"
     style="stop-color:#000000;stop-opacity:1;" /><stop
     id="stop6415"
     offset="1.0000000"
     style="stop-color:#595959;stop-opacity:1.0000000;" /></linearGradient><linearGradient
   gradientUnits="userSpaceOnUse"
   id="linearGradient11583"
   inkscape:collect="always"
   spreadMethod="repeat"
   x1="493.30402"
   x2="496.70248"
   xlink:href="#linearGradient6411"
   y1="326.13086"
   y2="324.03946" /><linearGradient
   id="linearGradient5675"><stop
     id="stop5677"
     offset="0.00000000"
     style="stop-color:#ffffff;stop-opacity:1.0000000;" /><stop
     id="stop5679"
     offset="1.0000000"
     style="stop-color:#e7edbe;stop-opacity:1.0000000;" /></linearGradient><linearGradient
   gradientUnits="userSpaceOnUse"
   id="linearGradient11581"
   inkscape:collect="always"
   x1="263.05844"
   x2="281.70435"
   xlink:href="#linearGradient5675"
   y1="423.44086"
   y2="331.09995" /><linearGradient
   id="linearGradient4927"><stop
     id="stop4929"
     offset="0.00000000"
     style="stop-color:#e0de2c;stop-opacity:1.0000000;" /><stop
     id="stop4931"
     offset="1.0000000"
     style="stop-color:#e5e5e5;stop-opacity:1.0000000;" /></linearGradient><radialGradient
   cx="240.37982"
   cy="169.99573"
   fx="240.37982"
   fy="169.99573"
   gradientTransform="matrix(1,0,0,0.905825,0,20.872)"
   gradientUnits="userSpaceOnUse"
   id="radialGradient11579"
   inkscape:collect="always"
   r="73.131134"
   xlink:href="#linearGradient4927" /><linearGradient
   id="linearGradient4191"><stop
     id="stop4193"
     offset="0.00000000"
     style="stop-color:#000000;stop-opacity:1.0000000;" /><stop
     id="stop4195"
     offset="1.0000000"
     style="stop-color:#6e6e6e;stop-opacity:1.0000000;" /></linearGradient><linearGradient
   gradientUnits="userSpaceOnUse"
   id="linearGradient11577"
   inkscape:collect="always"
   spreadMethod="reflect"
   x1="150.20929"
   x2="100.73916"
   xlink:href="#linearGradient4191"
   y1="272.98285"
   y2="331.89728" /><linearGradient
   gradientUnits="userSpaceOnUse"
   id="linearGradient11670"
   inkscape:collect="always"
   spreadMethod="reflect"
   x1="150.20929"
   x2="100.73916"
   xlink:href="#linearGradient4191"
   y1="272.98285"
   y2="331.89728" /><radialGradient
   cx="240.37982"
   cy="169.99573"
   fx="240.37982"
   fy="169.99573"
   gradientTransform="matrix(1,0,0,0.905825,0,20.872)"
   gradientUnits="userSpaceOnUse"
   id="radialGradient11672"
   inkscape:collect="always"
   r="73.131134"
   xlink:href="#linearGradient4927" /><linearGradient
   gradientUnits="userSpaceOnUse"
   id="linearGradient11674"
   inkscape:collect="always"
   x1="263.05844"
   x2="281.70435"
   xlink:href="#linearGradient5675"
   y1="423.44086"
   y2="331.09995" /><linearGradient
   gradientUnits="userSpaceOnUse"
   id="linearGradient11676"
   inkscape:collect="always"
   spreadMethod="repeat"
   x1="493.30402"
   x2="496.70248"
   xlink:href="#linearGradient6411"
   y1="326.13086"
   y2="324.03946" /><radialGradient
   cx="495.40192"
   cy="134.40182"
   fx="495.40192"
   fy="134.40182"
   gradientTransform="matrix(-1.21323,-0.380133,0.0620145,-0.197881,1111.65,361.191)"
   gradientUnits="userSpaceOnUse"
   id="radialGradient11678"
   inkscape:collect="always"
   r="45.169621"
   xlink:href="#linearGradient9363" /><linearGradient
   gradientUnits="userSpaceOnUse"
   id="linearGradient11680"
   inkscape:collect="always"
   x1="318.59756"
   x2="288.71396"
   xlink:href="#linearGradient7887"
   y1="103.31743"
   y2="233.45561" /><linearGradient
   gradientUnits="userSpaceOnUse"
   id="linearGradient11682"
   inkscape:collect="always"
   x1="494.05084"
   x2="444.90613"
   xlink:href="#linearGradient8627"
   y1="163.0381"
   y2="168.24548" /><linearGradient
   gradientUnits="userSpaceOnUse"
   id="linearGradient11684"
   inkscape:collect="always"
   spreadMethod="reflect"
   x1="374.20142"
   x2="378.57401"
   xlink:href="#linearGradient10101"
   y1="267.59784"
   y2="264.83621" /><linearGradient
   gradientTransform="translate(-352.318,178.07)"
   gradientUnits="userSpaceOnUse"
   id="linearGradient11708"
   inkscape:collect="always"
   spreadMethod="reflect"
   x1="150.20929"
   x2="100.73916"
   xlink:href="#linearGradient4191"
   y1="272.98285"
   y2="331.89728" /><radialGradient
   cx="240.37982"
   cy="169.99573"
   fx="240.37982"
   fy="169.99573"
   gradientTransform="matrix(1,0,0,0.905825,-352.318,198.942)"
   gradientUnits="userSpaceOnUse"
   id="radialGradient11710"
   inkscape:collect="always"
   r="73.131134"
   xlink:href="#linearGradient4927" /><linearGradient
   gradientTransform="translate(-352.318,178.07)"
   gradientUnits="userSpaceOnUse"
   id="linearGradient11712"
   inkscape:collect="always"
   x1="263.05844"
   x2="281.70435"
   xlink:href="#linearGradient5675"
   y1="423.44086"
   y2="331.09995" /><linearGradient
   gradientTransform="translate(-352.318,178.07)"
   gradientUnits="userSpaceOnUse"
   id="linearGradient11714"
   inkscape:collect="always"
   spreadMethod="repeat"
   x1="493.30402"
   x2="496.70248"
   xlink:href="#linearGradient6411"
   y1="326.13086"
   y2="324.03946" /><radialGradient
   cx="495.40192"
   cy="134.40182"
   fx="495.40192"
   fy="134.40182"
   gradientTransform="matrix(-1.21323,-0.380133,0.0620145,-0.197881,759.334,539.261)"
   gradientUnits="userSpaceOnUse"
   id="radialGradient11716"
   inkscape:collect="always"
   r="45.169621"
   xlink:href="#linearGradient9363" /><linearGradient
   gradientTransform="translate(-352.318,178.07)"
   gradientUnits="userSpaceOnUse"
   id="linearGradient11718"
   inkscape:collect="always"
   x1="318.59756"
   x2="288.71396"
   xlink:href="#linearGradient7887"
   y1="103.31743"
   y2="233.45561" /><linearGradient
   gradientTransform="translate(-352.318,178.07)"
   gradientUnits="userSpaceOnUse"
   id="linearGradient11720"
   inkscape:collect="always"
   x1="494.05084"
   x2="444.90613"
   xlink:href="#linearGradient8627"
   y1="163.0381"
   y2="168.24548" /><linearGradient
   gradientTransform="translate(-352.318,178.07)"
   gradientUnits="userSpaceOnUse"
   id="linearGradient11722"
   inkscape:collect="always"
   spreadMethod="reflect"
   x1="374.20142"
   x2="378.57401"
   xlink:href="#linearGradient10101"
   y1="267.59784"
   y2="264.83621" /><radialGradient
   r="543.35712"
   fy="431.64606"
   fx="395.20822"
   cy="431.64606"
   cx="395.20822"
   gradientTransform="matrix(1.283,0.96838,-0.602439,0.798165,58.7037,-383.593)"
   gradientUnits="userSpaceOnUse"
   id="radialGradient4012"
   xlink:href="#linearGradient2225"
   inkscape:collect="always" /><linearGradient
   id="linearGradient2225"><stop
     id="stop2227"
     offset="0"
     style="stop-color:#bee57c;stop-opacity:1;" /><stop
     id="stop2229"
     offset="1"
     style="stop-color:#a6d904;stop-opacity:1;" /></linearGradient><inkscape:perspective
   id="perspective69"
   inkscape:persp3d-origin="372.04724 : 350.78739 : 1"
   inkscape:vp_z="744.09448 : 526.18109 : 1"
   inkscape:vp_y="0 : 1000 : 0"
   inkscape:vp_x="0 : 526.18109 : 1"
   sodipodi:type="inkscape:persp3d" /><radialGradient
   inkscape:collect="always"
   xlink:href="#linearGradient2225"
   id="radialGradient4215"
   gradientUnits="userSpaceOnUse"
   gradientTransform="matrix(1.283,0.96838,-0.602439,0.798165,58.7037,-383.593)"
   cx="395.20822"
   cy="431.64606"
   fx="395.20822"
   fy="431.64606"
   r="543.35712" />
	
	
	
	
	
	
	
	
	
	
	
	
	
	
	
	
	
	
	
	
	
	
	
	
	
	
	
	
	
	
	
	
	
	
	
	
	
	
	
	
	
	
	
	
	
	
	
	
	
	
	
	
	
	
	
	
	
</defs><sodipodi:namedview
   pagecolor="#ffffff"
   bordercolor="#666666"
   borderopacity="1"
   objecttolerance="10"
   gridtolerance="10"
   guidetolerance="10"
   inkscape:pageopacity="0"
   inkscape:pageshadow="2"
   inkscape:window-width="1410"
   inkscape:window-height="872"
   id="namedview119"
   showgrid="false"
   inkscape:zoom="1.0516313"
   inkscape:cx="89.114288"
   inkscape:cy="500.42678"
   inkscape:window-x="146"
   inkscape:window-y="68"
   inkscape:window-maximized="0"
   inkscape:current-layer="Layer_1" />

<g
   id="g4159"
   transform="matrix(0.9991351,-0.04158188,0.04158188,0.9991351,-8.2964905,10.005428)"
   inkscape:export-filename="/home/zibi/Desktop/tennis.png"
   inkscape:export-xdpi="300"
   inkscape:export-ydpi="300"><path
     inkscape:export-ydpi="300"
     inkscape:export-xdpi="300"
     inkscape:export-filename="/home/zibi/Desktop/tennis.png"
     transform="matrix(0.04730986,0.00305066,-0.00305066,0.04730986,199.26168,245.11083)"
     d="m 848.57141,563.79077 c 0,299.81171 -243.04541,542.85713 -542.85712,542.85713 -299.8117025,0 -542.85711,-243.04542 -542.85711,-542.85713 0,-299.81171 243.0454075,-542.857115 542.85711,-542.857115 299.81171,0 542.85712,243.045405 542.85712,542.857115 z"
     sodipodi:ry="542.85712"
     sodipodi:rx="542.85712"
     sodipodi:cy="563.79077"
     sodipodi:cx="305.71429"
     id="path1350"
     style="fill:#ffff00;fill-opacity:1;fill-rule:evenodd;stroke:none"
     sodipodi:type="arc" /><path
     inkscape:export-ydpi="300"
     inkscape:export-xdpi="300"
     inkscape:export-filename="/home/zibi/Desktop/tennis.png"
     d="m 234.30315,122.70173 c -29.57694,-31.778821 -68.65477,-38.701636 -90.15543,-18.69071 -21.50064,20.01091 -17.4005,59.48787 12.17643,91.26669 15.76508,16.93878 34.92862,27.56845 52.65461,30.77799 l -0.15176,0.62074 c 0.29194,0.067 29.2114,6.73146 41.0947,12.33656 9.28695,4.37134 19.13184,11.49248 23.0363,14.42676 l -1.37798,1.28183 1.24503,1.33708 52.28372,56.17604 0.26336,4.94471 0.44284,0.47581 4.12937,4.43666 18.80248,-17.49965 -4.92821,-5.2956 -5.57506,-0.19229 -53.07607,-57.02738 -1.11849,1.04105 c -2.64905,-4.10271 -9.0344,-14.44504 -12.74055,-24.00914 -4.74178,-12.25179 -9.3138,-41.57662 -9.35393,-41.87807 l -0.73927,0.11427 c -1.93736,-17.88097 -11.16776,-37.72821 -26.91174,-54.64426 z m -72.65654,67.62232 c -0.97282,-1.04538 -1.85015,-2.11405 -2.7645,-3.17286 l 3.57767,-3.32912 8.52227,9.15674 -3.43077,3.1934 c -2.0101,-1.85591 -3.98839,-3.7892 -5.90419,-5.84762 z m 11.51282,0.62897 -8.52228,-9.15675 9.15454,-8.52022 8.52227,9.15674 -9.15454,8.52022 z m 11.182,-6.34036 8.52705,9.16186 -9.15381,8.51954 -8.52705,-9.16186 9.15382,-8.51955 z m -21.72978,-4.99265 -8.52228,-9.15674 9.15455,-8.52023 8.52228,9.15674 -9.15455,8.52023 z m -10.55114,-11.33668 -8.52432,-9.15894 9.15454,-8.52024 8.525,9.15967 -9.15521,8.5195 0,0 z m -10.5525,-11.33816 -0.6024,-0.64698 c -1.49702,-4.6189 -2.40203,-9.15219 -2.82593,-13.54721 l 3.91258,-3.64153 8.6701,9.3156 -9.15453,8.52023 z m 10.40441,15.54423 8.52227,9.15674 -3.50607,3.26367 c -2.75023,-3.3733 -5.16915,-6.8104 -7.32764,-10.2686 l 2.31154,-2.15167 z m -3.87282,-0.46376 c -1.58928,-2.73799 -2.9895,-5.47981 -4.2073,-8.21791 l 6.0512,6.50176 -1.84397,1.71615 z m 24.97108,23.13268 8.52704,9.16187 -1.71794,1.59909 c -3.41357,-2.31878 -6.76142,-4.91044 -10.02622,-7.76658 l 3.21729,-2.99419 z m 10.55319,11.33889 3.77532,4.05581 c -1.66444,-0.91941 -3.32569,-1.88824 -4.9792,-2.93534 l 1.20403,-1.12087 z m 2.17702,-2.02614 9.15455,-8.52022 8.52774,9.1626 -9.15455,8.52022 -8.52773,-9.16259 z m 0.18227,-63.63582 8.52227,9.15674 -9.16479,8.52978 -8.52227,-9.15675 9.16479,-8.52977 z m -11.19368,6.34985 -8.52432,-9.15894 9.16479,-8.52978 8.525,9.15967 -9.16547,8.52905 0,0 z m 21.74143,4.98316 8.52227,9.15675 -9.16478,8.52978 -8.52228,-9.15675 9.16478,-8.52977 z m 10.55053,11.33589 8.52705,9.16186 -9.16479,8.52978 -8.52704,-9.16185 9.16478,-8.52977 z m 10.55319,11.33889 8.52773,9.16259 -9.16479,8.52978 -8.52773,-9.1626 9.16477,-8.52977 z m 10.5478,11.33297 8.40303,9.02867 -9.16479,8.52978 -8.40302,-9.02867 9.16478,-8.52977 z m -54.78065,-58.85887 -9.16479,8.52977 -8.6701,-9.31559 9.16479,-8.52978 8.6701,9.3156 z m -9.31651,12.73787 8.52501,9.15967 -9.15382,8.51955 -8.525,-9.15966 9.1538,-8.51956 z m -11.18201,6.34036 -8.67011,-9.3156 9.15381,-8.51957 8.67011,9.3156 -9.15381,8.51957 z m 21.73522,4.99849 8.52228,9.15674 -9.15382,8.51955 -8.52228,-9.15674 9.15382,-8.51955 z m 10.54774,11.33304 8.52227,9.15674 -9.15382,8.51955 -8.52227,-9.15674 9.15382,-8.51955 z m 10.55046,11.33596 8.52705,9.16187 -9.15382,8.51954 -8.52706,-9.16187 9.15382,-8.51954 z m 10.55318,11.33889 8.52774,9.1626 -9.15382,8.51954 -8.52773,-9.16258 9.15382,-8.51955 z m 10.54774,11.33304 8.40309,9.02859 -9.15382,8.51955 -8.4031,-9.0286 9.15382,-8.51954 z m -74.63074,-61.8319 -3.85442,-4.14203 c 0.72451,-4.88873 2.24289,-9.42206 4.5565,-13.46058 l 8.45275,9.0821 -9.15454,8.52023 z m 85.062,73.03973 8.27634,8.89247 c -4.30434,1.89958 -9.10383,2.90756 -14.23561,3.0609 l -3.19545,-3.43296 9.15455,-8.52022 z m 2.17995,-2.02887 9.16479,-8.52978 9.08775,9.76431 c -1.0909,1.47433 -2.27572,2.88444 -3.63727,4.15164 -1.75376,1.63251 -3.71717,2.94732 -5.77473,4.10959 l -8.84055,-9.49575 0,0 z m -1.1131,-23.93219 -8.52774,-9.1626 9.16259,-8.52773 8.52773,9.16259 -9.16259,8.52773 z m 11.18256,-6.35591 8.40303,9.02867 -9.16186,8.52705 -8.40303,-9.02867 9.16186,-8.52705 z m -21.73578,-4.98296 -8.52705,-9.16186 9.16259,-8.52773 8.52705,9.16187 -9.16259,8.52772 z m -10.55523,-11.34108 -8.52227,-9.15674 9.16259,-8.52773 8.52227,9.15674 -9.16259,8.52773 z m -10.54773,-11.33304 -8.52228,-9.15674 9.16259,-8.52774 8.52227,9.15674 -9.16259,8.52773 z m -10.55114,-11.33669 -8.52432,-9.15894 9.1626,-8.52774 8.52499,9.15967 -9.16326,8.527 0,0 z m -10.55251,-11.33816 -8.67011,-9.31559 9.1626,-8.52773 8.6701,9.31559 -9.16258,8.52774 z m 74.37378,61.53965 4.05637,4.35844 c -0.72525,4.92903 -2.24557,9.45734 -4.61156,13.41757 l -8.60673,-9.24754 9.16192,-8.52847 0,0 z m -85.07019,-73.0322 -8.74984,-9.40123 c 4.02761,-2.17343 8.4973,-3.53429 13.2742,-4.11005 l 4.63897,4.98421 -9.16326,8.52701 0,0 z m 28.5546,-10.41653 2.6374,2.8335 -9.15453,8.52023 -8.67011,-9.31559 5.03333,-4.68455 c 3.33215,0.56535 6.72164,1.44479 10.15408,2.64629 z m 18.32853,9.38907 -2.95706,2.7527 -8.52432,-9.15893 0.12298,-0.11446 c 3.8017,1.79496 7.60132,3.96343 11.35866,6.52096 z m 17.27517,14.88441 c 1.91562,2.0586 3.70013,4.17227 5.41077,6.30822 l -4.54414,4.22967 -8.52227,-9.15674 4.69036,-4.36612 c 0.98907,0.9879 1.99223,1.93947 2.96511,2.98478 z m -20.385,-7.92181 8.52228,9.15675 -9.15455,8.52023 -8.52228,-9.15675 9.15455,-8.52022 z m -11.18343,6.34032 -8.52432,-9.15894 9.15454,-8.52024 8.525,9.15967 -9.15522,8.51949 0,0 z m 21.73119,4.99268 8.52228,9.15675 -9.15456,8.52023 -8.52227,-9.15674 9.15455,-8.52024 z m 10.55047,11.33597 8.52705,9.16186 -9.15456,8.52023 -8.52705,-9.16186 9.15456,-8.52024 z m 10.55319,11.33889 8.52773,9.16259 -9.15455,8.52023 -8.52774,-9.1626 9.15456,-8.52024 z m 0.15521,-4.20726 -8.52705,-9.16186 4.33065,-4.03045 c 2.6155,3.46045 4.95978,6.98616 7.02863,10.55647 l -2.83204,2.63603 z m 4.34371,0.02 c 1.67385,3.10188 3.10325,6.21409 4.35094,9.32191 l -6.66846,-7.16497 2.3174,-2.15714 z m -25.44673,-22.69411 -8.52227,-9.15673 3.42638,-3.18931 c 3.29238,2.40288 6.54799,5.06127 9.7162,8.04554 l -4.62017,4.30062 z m 22.34101,46.73457 9.15456,-8.52023 0.76608,0.82385 c 1.3138,4.38096 2.2145,8.69971 2.62457,12.86851 l -4.14349,3.85579 -8.40234,-9.02794 z m -62.21728,-73.38524 -3.2589,3.03314 -3.00236,-3.22605 c 2.0486,-0.06517 4.13194,-0.0138 6.26137,0.19286 z m -25.95384,5.7501 9.17904,9.86241 -9.1648,8.52978 -8.95698,-9.62373 c 1.3477,-1.92644 2.82929,-3.75892 4.58246,-5.39062 1.36233,-1.26928 2.8367,-2.3683 4.36022,-3.37779 z m -15.60128,28.71407 2.1005,2.25671 -2.13894,1.99074 c -0.0357,-1.43269 -0.0453,-2.85806 0.0385,-4.24753 z m 59.14605,80.45536 8.43279,-7.84846 8.40311,9.02861 -3.02356,2.81338 c -4.50494,-0.77158 -9.14074,-2.13586 -13.81261,-3.99388 z m 17.65328,4.48621 1.20914,-1.12565 1.27706,1.37287 c -0.81769,-0.0463 -1.65688,-0.16419 -2.4867,-0.24704 z m 49.86388,2.11354 c 4.35968,11.2864 11.91737,23.10999 14.10638,26.42777 l -0.25914,0.24118 c -3.15672,-2.41711 -14.40302,-10.80768 -25.34787,-15.96517 -5.04836,-2.38876 -12.69733,-4.86661 -20.12139,-7.02648 6.04409,-1.63903 11.50311,-4.54224 16.05476,-8.77852 4.60116,-4.28288 7.90123,-9.57915 9.97847,-15.56841 1.61401,7.58921 3.56042,15.43871 5.58879,20.66963 z m -10.19493,-34.49299 -2.26493,-2.43292 2.32983,-2.16874 c 0.0487,1.56263 0.0233,3.09572 -0.0654,4.60176 z"
     id="path117"
     inkscape:connector-curvature="0"
     style="fill:#000000;fill-opacity:1;stroke:#000000;stroke-width:2;stroke-miterlimit:4;stroke-opacity:1;stroke-dasharray:none" /><path
     inkscape:export-ydpi="300"
     inkscape:export-xdpi="300"
     inkscape:export-filename="/home/zibi/Desktop/tennis.png"
     transform="matrix(0.75150879,-0.70131151,0.67737843,0.72586267,-72.270797,253.91538)"
     d="m 298.58372,115.77306 c 0,38.86255 -20.22237,70.36687 -45.16792,70.36687 -24.94555,0 -45.16792,-31.50432 -45.16792,-70.36687 0,-38.862544 20.22237,-70.366863 45.16792,-70.366863 24.94555,0 45.16792,31.504319 45.16792,70.366863 z"
     sodipodi:ry="70.366867"
     sodipodi:rx="45.167919"
     sodipodi:cy="115.77306"
     sodipodi:cx="253.4158"
     id="path4129"
     style="fill:#b9b9b9;fill-opacity:1;stroke:#000000;stroke-width:1.97976577;stroke-miterlimit:4;stroke-opacity:1;stroke-dasharray:none"
     sodipodi:type="arc" /><path
     inkscape:export-ydpi="300"
     inkscape:export-xdpi="300"
     inkscape:export-filename="/home/zibi/Desktop/tennis.png"
     inkscape:connector-curvature="0"
     id="path4139"
     d="m 268.41901,240.26015 c -7.41661,-4.95873 -16.97351,-9.74103 -24.72757,-12.37374 -3.21713,-1.09229 -5.84932,-2.18807 -5.84932,-2.43506 0,-0.24699 1.73981,-1.42655 3.86624,-2.62123 5.83946,-3.28075 9.87647,-6.9572 13.30877,-12.12012 1.70499,-2.56467 3.33116,-4.66303 3.61373,-4.66303 0.28257,0 0.90146,1.73981 1.37532,3.86625 1.89021,8.48234 8.07138,23.07448 13.24757,31.2741 0.9168,1.45231 1.56184,2.74565 1.43341,2.87408 -0.12843,0.12842 -2.9491,-1.58213 -6.26815,-3.80125 l 0,0 z"
     style="fill:#000000;fill-opacity:1;stroke:#000000;stroke-width:1.34478068;stroke-linecap:round;stroke-linejoin:round;stroke-miterlimit:4;stroke-opacity:1;stroke-dasharray:none;stroke-dashoffset:0" /><path
     inkscape:export-ydpi="300"
     inkscape:export-xdpi="300"
     inkscape:export-filename="/home/zibi/Desktop/tennis.png"
     transform="matrix(0.88204304,-0.82312668,0.79503651,0.85194228,-118.89329,271.29701)"
     d="m 298.58372,115.77306 c 0,38.86255 -20.22237,70.36687 -45.16792,70.36687 -24.94555,0 -45.16792,-31.50432 -45.16792,-70.36687 0,-38.862544 20.22237,-70.366863 45.16792,-70.366863 24.94555,0 45.16792,31.504319 45.16792,70.366863 z"
     sodipodi:ry="70.366867"
     sodipodi:rx="45.167919"
     sodipodi:cy="115.77306"
     sodipodi:cx="253.4158"
     id="path4129-1"
     style="fill:none;stroke:#000000;stroke-width:8.4338932;stroke-linejoin:round;stroke-miterlimit:4;stroke-opacity:1;stroke-dasharray:none"
     sodipodi:type="arc" /></g></svg>