<?xml version="1.0" encoding="UTF-8" standalone="no"?>
<!-- Created with Inkscape (http://www.inkscape.org/) -->

<svg
   xmlns:dc="http://purl.org/dc/elements/1.1/"
   xmlns:cc="http://creativecommons.org/ns#"
   xmlns:rdf="http://www.w3.org/1999/02/22-rdf-syntax-ns#"
   xmlns:svg="http://www.w3.org/2000/svg"
   xmlns="http://www.w3.org/2000/svg"
   xmlns:sodipodi="http://sodipodi.sourceforge.net/DTD/sodipodi-0.dtd"
   xmlns:inkscape="http://www.inkscape.org/namespaces/inkscape"
   version="1.0"
   width="580"
   height="580"
   id="svg2"
   sodipodi:version="0.32"
   inkscape:version="0.48.0 r9654"
   sodipodi:docname="theatre.svg"
   inkscape:output_extension="org.inkscape.output.svg.inkscape"
   inkscape:export-filename="/home/babik/GIS/symbol/teatr16.png"
   inkscape:export-xdpi="2.4789934"
   inkscape:export-ydpi="2.4789934">
  <metadata
     id="metadata2975">
    <rdf:RDF>
      <cc:Work
         rdf:about="">
        <dc:format>image/svg+xml</dc:format>
        <dc:type
           rdf:resource="http://purl.org/dc/dcmitype/StillImage" />
        <cc:license
           rdf:resource="http://web.resource.org/cc/PublicDomain" />
        <dc:language>en</dc:language>
        <dc:title></dc:title>
      </cc:Work>
    </rdf:RDF>
  </metadata>
  <sodipodi:namedview
     inkscape:window-height="578"
     inkscape:window-width="1024"
     inkscape:pageshadow="2"
     inkscape:pageopacity="0.0"
     guidetolerance="10.0"
     gridtolerance="10.0"
     objecttolerance="10.0"
     borderopacity="1.0"
     bordercolor="#666666"
     pagecolor="#ffffff"
     id="base"
     inkscape:zoom="0.46083856"
     inkscape:cx="628.59125"
     inkscape:cy="-97.341457"
     inkscape:window-x="0"
     inkscape:window-y="0"
     inkscape:current-layer="svg2"
     showgrid="false"
     inkscape:window-maximized="1" />
  <defs
     id="defs4">
    <inkscape:perspective
       sodipodi:type="inkscape:persp3d"
       inkscape:vp_x="0 : 290 : 1"
       inkscape:vp_y="0 : 1000 : 0"
       inkscape:vp_z="580 : 290 : 1"
       inkscape:persp3d-origin="290 : 193.33333 : 1"
       id="perspective2441" />
    <inkscape:perspective
       id="perspective3452"
       inkscape:persp3d-origin="30 : 20 : 1"
       inkscape:vp_z="60 : 30 : 1"
       inkscape:vp_y="0 : 1000 : 0"
       inkscape:vp_x="0 : 30 : 1"
       sodipodi:type="inkscape:persp3d" />
    <symbol
       viewBox="244.5 110 489 219.9"
       id="symbol-university">
      <path
         id="path4460"
         d="M79,43l57,119c0,0,21-96,104-96s124,106,124,106l43-133l82-17L0,17L79,43z" />
      <path
         id="path4462"
         d="M94,176l-21,39"
         stroke-width="20"
         stroke="#000000"
         fill="none" />
      <path
         id="path4464"
         d="M300,19c0,10.5-22.6,19-50.5,19S199,29.5,199,19s22.6-19,50.5-19S300,8.5,300,19z" />
      <path
         id="path4466"
         d="M112,216l-16-38L64,88c0,0-9-8-4-35s16-24,16-24"
         stroke-width="20"
         stroke="#000000"
         ill="none" />
    </symbol>
    <inkscape:perspective
       id="perspective4471"
       inkscape:persp3d-origin="372.04724 : 350.78739 : 1"
       inkscape:vp_z="744.09448 : 526.18109 : 1"
       inkscape:vp_y="0 : 1000 : 0"
       inkscape:vp_x="0 : 526.18109 : 1"
       sodipodi:type="inkscape:persp3d" />
    <inkscape:perspective
       id="perspective4668"
       inkscape:persp3d-origin="6 : 4 : 1"
       inkscape:vp_z="12 : 6 : 1"
       inkscape:vp_y="0 : 1000 : 0"
       inkscape:vp_x="0 : 6 : 1"
       sodipodi:type="inkscape:persp3d" />
    <inkscape:perspective
       id="perspective2543"
       inkscape:persp3d-origin="372.04724 : 350.78739 : 1"
       inkscape:vp_z="744.09448 : 526.18109 : 1"
       inkscape:vp_y="0 : 1000 : 0"
       inkscape:vp_x="0 : 526.18109 : 1"
       sodipodi:type="inkscape:persp3d" />
  </defs>
  <path
     inkscape:connector-curvature="0"
     id="path1329"
     style="fill:none;stroke:#eeeeee;stroke-width:3.40799998999999998"
     d="M 66.275,1.768 C 24.94,1.768 1.704,23.139 1.704,66.804 l 0,450.123 c 0,40.844 20.895,62.229 62.192,62.229 l 452.024,0 c 41.307,0 62.229,-20.315 62.229,-62.229 l 0,-450.123 c 0,-42.601 -20.922,-65.036 -63.521,-65.036 -0.004,0 -448.495,-0.143 -448.353,0 z" />
  <g
     id="layer3"
     inkscape:label="Layout"
     style="display:none;stroke:#757575;stroke-opacity:1"
     transform="matrix(48.14969,0,0,48.14969,-536.27327,-33.306752)">
    <rect
       style="fill:none;stroke:#757575;stroke-width:0.10000000000000001;stroke-miterlimit:4;stroke-dasharray:none;stroke-opacity:1;display:inline"
       id="rect4134"
       width="10"
       height="10"
       x="1"
       y="1" />
    <rect
       style="fill:none;stroke:#757575;stroke-width:0.10000000000000001;stroke-miterlimit:4;stroke-dasharray:none;stroke-opacity:1;display:inline"
       id="rect4136"
       width="8"
       height="8"
       x="2"
       y="2" />
  </g>
  <path
     style="fill:#000000;stroke:#000000;stroke-width:20;stroke-linecap:butt;stroke-linejoin:miter;stroke-miterlimit:4;stroke-opacity:1;stroke-dasharray:none"
     d="m 254.24396,113.60909 c -9.66651,0.0211 -20.42752,7.75494 -27.28125,14.21875 -29.30327,22.49956 -50.74591,38.61784 -99.71875,51.8125 -18.60625,5.62024 -56.493907,-1.22039 -93.656247,-3.84375 -23.7270405,-3.69829 -3.39165,38.67497 -0.21875,55.90625 21.098259,66.07481 45.37477,132.95229 88.249997,188.34375 24.45161,27.21272 58.26924,50.93253 96.1875,50.5 31.33394,-2.6127 57.19566,-27.77299 64.53125,-57.75 0.63361,-2.02339 1.21909,-4.0723 1.75,-6.125 0.84079,-3.1428 1.65225,-6.27899 2.40625,-9.4375 -4.62443,-7.21025 -8.11659,-15.16491 -10.15625,-23.5 -0.6336,-2.02338 -1.18784,-4.0723 -1.71875,-6.125 -17.04374,-63.70793 -15.99353,-130.75362 -8.59375,-195.78125 2.15502,-10.43645 4.77127,-20.76833 7.59375,-31.03125 -1.96127,-6.52027 -3.90503,-13.05279 -5.78125,-19.59375 -3.76213,-5.52422 -8.53034,-7.60477 -13.59375,-7.59375 z"
     id="path3327"
     inkscape:connector-curvature="0" />
  <path
     style="fill:#8a8a8a;fill-opacity:1;fill-rule:evenodd;stroke:#ffffff;stroke-width:20;stroke-linecap:butt;stroke-linejoin:miter;stroke-miterlimit:4;stroke-opacity:1;stroke-dasharray:none"
     d="m 313.84375,115.1897 c -7.75845,1.99335 -6.65216,12.10518 -9.21875,18 -11.44586,36.58947 -22.94424,73.82114 -23.40625,112.5 -3.52027,58.1076 -1.26601,118.13291 18.96875,173.09375 11.94252,24.79259 40.55421,42.6954 68.3125,35.6875 39.13884,-8.07086 70.3371,-37.51733 90.65625,-70.84375 38.09398,-59.52032 59.59666,-127.4029 79.09375,-194.8125 0.37298,-3.58477 1.83659,-9.10048 -0.34375,-11.6875 -18.78901,1.3028 -37.70899,3.78469 -56.59375,5.4375 -20.57984,1.95747 -41.6362,0.0333 -60.90625,-7.5 -34.38701,-11.39078 -64.68087,-31.89944 -92.25,-55.03125 -4.2144,-2.81934 -9.15075,-5.0331 -14.3125,-4.84375 z m 61.5,91.3125 c 16.30541,-0.52278 23.75451,22.783 12.65625,33.4375 -14.94918,16.1141 -38.41477,26.93637 -60.5,21.21875 -13.56338,-4.8754 -21.2342,-24.42699 -10.90625,-35.875 16.26698,-14.12881 39.62952,-11.73933 58.75,-18.78125 z m 65.96875,14.5 c 17.11702,-0.50918 29.59003,15.67127 31.8125,31.34375 4.47036,10.78839 12.37873,22.91644 6.78125,34.8125 -4.10797,8.9602 -15.75028,10.60979 -24.15625,7.3125 -20.10907,-4.6716 -33.51086,-24.57293 -33.90625,-44.78125 -1.82808,-11.59203 3.6182,-26.45785 16.5,-28.375 0.97733,-0.19021 1.96884,-0.29289 2.96875,-0.3125 z m -66.40625,105.5625 c 21.12539,0.34468 40.43592,13.22463 52.8125,29.65625 7.86509,13.49363 4.11776,35.13799 -11.84375,40.65625 -10.96264,2.41607 -18.21597,-8.08662 -26.9375,-12.59375 -13.96503,-8.9439 -31.80484,-9.06012 -47.0625,-3.71875 -7.50701,2.35216 -17.68062,0.64343 -20.53125,-7.625 -4.87856,-11.50286 2.07189,-24.81645 12.125,-30.9375 11.84978,-9.1388 26.31589,-15.38895 41.4375,-15.4375 z"
     id="path3331"
     inkscape:connector-curvature="0" />
  <path
     sodipodi:nodetypes="ccccccccccc"
     id="path3354"
     d="m 283.28414,389.31843 c -17.04374,-63.70793 -15.96456,-130.77757 -8.56478,-195.8052 6.27884,-30.40762 16.27806,-59.8515 24.82708,-89.65538 10.94439,-16.070441 30.41032,-3.23905 40.8541,6.61056 29.30327,22.49956 50.76107,38.63246 99.73391,51.82712 18.60624,5.62024 56.48034,-1.23286 93.64268,-3.85622 23.72704,-3.69829 3.41363,38.67884 0.24073,55.91012 -21.09826,66.07482 -45.40258,132.93375 -88.27782,188.32521 -24.45161,27.21271 -58.25363,50.95197 -96.17189,50.51944 -31.33394,-2.61271 -57.203,-27.78273 -64.53859,-57.75974 -0.6336,-2.02339 -1.21451,-4.06321 -1.74542,-6.11591 z"
     style="fill:none;stroke:#ffffff;stroke-width:20;stroke-linecap:butt;stroke-linejoin:miter;stroke-miterlimit:4;stroke-opacity:1;stroke-dasharray:none"
     inkscape:connector-curvature="0" />
  <path
     style="fill:#ffffff;fill-opacity:1"
     d="M 186.12241,419.27686 C 170.53493,417.11172 155.64536,407.86822 148.14943,393.82511 C 156.45018,384.60253 168.30406,393.94518 177.99545,394.82651 C 200.59927,397.6843 221.72402,382.82159 232.73498,363.94829 C 239.87297,357.1071 240.80305,338.44975 253.21729,341.18549 C 262.17061,346.14062 260.48348,357.54208 258.29637,365.82526 C 256.88071,376.8697 251.51326,386.79943 244.41837,395.21953 C 238.82911,402.70552 233.279,411.2716 223.61206,413.75083 C 211.24992,416.05078 198.94862,421.89348 186.12241,419.27686 z M 130.89478,298.43387 C 118.97928,291.40044 104.61665,287.07557 96.170165,275.40016 C 94.286275,262.11694 111.04341,253.45542 122.18996,258.6432 C 135.31628,262.75007 147.72927,270.26671 156.03614,281.40001 C 161.54984,291.41743 151.97952,307.23533 140.07175,302.07563 C 136.9139,301.12126 133.97122,299.60336 130.89478,298.43387 z M 206.89207,273.8418 C 198.55822,262.89704 198.48009,243.84556 211.43127,236.33629 C 219.93732,230.71704 232.14405,226.85491 241.18494,233.48717 C 245.93063,243.2669 237.57259,252.23031 233.80123,260.69155 C 231.52257,269.23785 225.9191,278.83487 216.1538,279.68611 C 212.22197,279.78353 208.73096,277.17207 206.89207,273.8418 z"
     id="path3360" />
</svg>
